<svg width="660" height="660" viewBox="0 0 660 660" fill="none" xmlns="http://www.w3.org/2000/svg">
<g clip-path="url(#clip0_2_2066)">
<circle cx="330.004" cy="330" r="330" fill="#FBCE51"/>
<g style="mix-blend-mode:overlay">
<path d="M472.541 613.056L472.149 612.238L473.646 611.213L469.467 602.862L469.134 605.625L467.229 613.874L467.412 614.33L468.972 613.832L469.364 614.65L464.766 616.983L464.374 616.165L465.63 615.279L460.484 604.835L459.019 605.359L458.627 604.541L463.32 602.233L463.712 603.051L462.361 603.912L466.61 612.384L466.892 609.811L468.847 601.372L468.499 600.769L466.819 601.338L466.427 600.52L471.12 598.212L471.512 599.03L470.161 599.89L475.307 610.335L476.746 609.905L477.138 610.723L472.541 613.056Z" fill="black"/>
<path d="M461.165 618.259C460.657 618.632 460.296 618.841 459.934 619.049C459.573 619.258 459.211 619.467 458.875 619.58C457.48 620.225 456.282 620.515 455.306 620.356C454.33 620.196 453.647 619.707 453.21 618.674C452.844 617.761 452.763 616.924 453.087 616.094C453.411 615.264 453.995 614.606 454.743 614.093C453.71 614.529 452.778 614.585 451.923 614.356C451.093 614.032 450.53 613.474 450.138 612.656C449.562 611.381 449.532 610.354 450.002 609.36C450.472 608.365 451.513 607.524 453.149 606.74C453.846 606.417 454.518 606.19 455.044 606.127C455.596 605.97 456.122 605.907 456.433 605.888C456.743 605.87 456.959 605.825 457.054 605.851L458.051 608.97L457.233 609.362L455.74 607.332C455.049 607.249 454.282 607.451 453.249 607.887C452.456 608.184 452.018 608.678 451.84 609.343C451.662 610.008 451.769 610.75 452.135 611.663C452.458 612.36 452.926 612.893 453.566 613.167C454.205 613.44 455.042 613.359 456.076 612.922L457.23 612.417L457.691 613.355L456.658 613.791C456.201 613.975 455.814 614.278 455.402 614.677C455.084 615.101 454.862 615.551 454.735 616.026C454.702 616.527 454.74 617.148 454.992 617.725C455.289 618.518 455.783 618.956 456.353 619.108C456.924 619.261 457.57 619.129 458.363 618.832C458.845 618.554 459.301 618.37 459.593 618.041C459.885 617.712 460.057 617.452 460.107 617.262L459.755 615.538L460.814 615.007L462.154 617.607C462.034 617.676 461.672 617.885 461.165 618.259Z" fill="black"/>
<path d="M445.942 623.754L447.451 623.445L447.817 624.358L445.439 625.249C445.078 625.457 444.526 625.615 443.949 625.868C443.372 626.121 443.011 626.329 442.77 626.469C441.185 627.062 439.917 627.232 439.062 627.003C438.206 626.774 437.548 626.19 437.207 625.182C436.91 624.389 436.829 623.553 437.127 622.818C437.331 622.057 437.915 621.399 438.638 620.982C437.509 621.392 436.552 621.543 435.722 621.219C434.892 620.895 434.234 620.311 433.893 619.303C433.387 618.149 433.477 617.052 434.068 615.988C434.659 614.924 435.82 614.013 437.741 613.306C438.197 613.122 438.533 613.009 438.964 612.921C439.852 612.649 440.429 612.396 440.645 612.352L442.927 611.436L443.199 612.324L441.778 613.063L445.942 623.754ZM438.038 614.098C436.884 614.604 436.135 615.116 435.741 615.826C435.348 616.535 435.454 617.277 435.726 618.164C436.092 619.077 436.561 619.61 437.201 619.884C437.84 620.157 438.677 620.075 439.711 619.639C440.865 619.134 441.632 618.932 441.993 618.723L440.028 613.511C439.623 613.504 439.046 613.757 438.038 614.098ZM441.301 620.167L440.388 620.534C439.595 620.831 439.062 621.299 438.789 621.939C438.516 622.579 438.527 623.295 438.919 624.113C439.216 624.905 439.685 625.438 440.229 625.686C440.774 625.934 441.611 625.852 442.644 625.416C443.101 625.233 443.462 625.024 443.919 624.841L444.28 624.633L442.429 619.757C442.188 619.896 441.852 620.009 441.301 620.167Z" fill="black"/>
<path d="M431.103 630.473L429.182 631.181L420.773 620.372L419.6 620.567L419.328 619.679L424.033 618.088L424.304 618.975L422.909 619.62L424.611 622.011L429.772 620.237L429.725 617.372L428.121 617.655L427.85 616.768L432.097 615.359L432.369 616.247L431.31 616.778L431.103 630.473ZM429.116 628.006L430.072 629.382L429.934 627.614L429.777 621.358L425.288 622.906L429.116 628.006Z" fill="black"/>
<path d="M416.487 621.159C417.628 621.464 418.502 622.004 419.274 622.924C420.046 623.844 420.672 624.928 421.006 626.342C421.366 627.66 421.441 628.903 421.205 630.164C420.969 631.425 420.403 632.393 419.578 633.191C418.754 633.989 417.764 634.64 416.541 635.025C415.653 635.297 414.48 635.492 413.143 635.541L412.522 635.578L411.765 632.32L412.989 631.935L414.146 634.078C414.336 634.129 414.716 634.231 415.122 634.238C415.527 634.245 416.079 634.087 416.726 633.954C417.493 633.753 418.121 633.31 418.584 632.721C419.047 632.132 419.372 631.302 419.411 630.396C419.45 629.49 419.35 628.343 419.034 627.239C418.719 626.136 418.283 625.103 417.675 624.329C417.068 623.555 416.435 622.876 415.7 622.577C414.965 622.278 414.084 622.144 413.197 622.416C412.55 622.548 412.068 622.826 411.827 622.966C411.586 623.105 411.294 623.434 411.123 623.694L410.899 625.671L409.726 625.866L409.412 623.235C409.628 623.191 409.989 622.982 410.471 622.704C410.858 622.4 411.22 622.192 411.676 622.008C412.038 621.8 412.589 621.642 413.141 621.484C414.2 620.953 415.347 620.853 416.487 621.159Z" fill="black"/>
<path d="M402.401 635.718C402.025 636.738 401.46 637.707 400.781 638.34C399.982 639.042 399.139 639.529 398.181 639.68C396.983 639.97 395.887 639.88 394.962 639.531C394.037 639.181 393.189 638.546 392.512 637.652C391.835 636.757 391.303 635.699 391.064 634.31C390.756 632.802 390.706 631.464 390.917 630.298C391.153 629.037 391.718 628.069 392.448 627.246C393.178 626.423 394.116 625.961 395.219 625.645C396.418 625.355 397.539 625.35 398.559 625.725C399.579 626.101 400.333 626.71 401.035 627.509C401.712 628.404 402.243 629.463 402.482 630.851L405.405 630.208L404.182 624.889L402.603 625.077L402.427 624.215L407.435 623.011L407.612 623.873L406.147 624.397L408.821 635.707L410.278 635.588L410.455 636.45L405.567 637.585L405.391 636.723L406.855 636.199L405.72 631.311L402.773 632.049C402.796 633.481 402.681 634.673 402.401 635.718ZM400.333 636.59C400.76 635.38 400.761 633.853 400.295 631.793C399.847 630.043 399.202 628.648 398.31 627.798C397.417 626.947 396.397 626.572 395.104 626.837C393.906 627.127 393.201 627.855 392.801 628.97C392.4 630.085 392.468 631.733 392.935 633.793C393.382 635.543 393.932 636.912 394.825 637.762C395.692 638.708 396.737 638.988 397.84 638.672C399.108 638.503 399.907 637.8 400.333 636.59Z" fill="black"/>
<path d="M381.126 634.907C380.563 634.348 379.74 633.618 378.873 632.673C378.24 631.994 377.866 631.487 377.537 631.195C377.208 630.903 376.948 630.732 376.758 630.681L376.068 630.597L375.891 629.735L378.142 629.32C378.452 629.301 378.807 629.498 379.206 629.91C379.604 630.323 380.237 631.002 380.914 631.896C381.756 632.936 382.389 633.615 382.952 634.174C383.421 634.707 383.87 634.929 384.301 634.841L385.474 634.646L384.536 629.403L382.888 629.471L382.712 628.609L387.739 627.715L387.89 628.672L386.45 629.101L388.477 640.543L390.005 640.545L390.156 641.502L385.25 642.327L385.149 641.179L386.614 640.655L385.702 635.318L384.098 635.601L381.277 641.568L382.83 641.475L382.981 642.432L378.48 643.263L378.329 642.306L379.768 641.876L382.83 635.771C382.329 635.738 381.715 635.37 381.126 634.907Z" fill="black"/>
<path d="M372.772 630.732C373.766 631.203 374.494 631.907 375.026 632.966C375.582 633.93 375.967 635.154 376.206 636.542C376.446 637.93 376.305 639.216 375.879 640.426C375.478 641.541 374.818 642.485 374.018 643.187C373.124 643.864 372.185 644.326 370.918 644.496C369.003 644.797 367.388 644.365 366.261 643.248C365.134 642.131 364.325 640.59 364.099 638.391C363.886 636.907 364.027 635.621 364.427 634.506C364.853 633.296 365.488 632.448 366.313 631.65C367.207 630.973 368.241 630.537 369.414 630.342C370.681 630.172 371.778 630.262 372.772 630.732ZM373.545 641.533C374.066 640.348 374.258 638.872 374.007 636.767C373.8 634.878 373.25 633.509 372.409 632.469C371.567 631.428 370.547 631.053 369.374 631.248C368.202 631.443 367.333 632.025 366.812 633.21C366.291 634.394 366.073 635.966 366.35 637.975C366.557 639.864 367.106 641.233 367.973 642.179C368.746 643.099 369.74 643.569 371.008 643.399C372.129 643.394 373.024 642.717 373.545 641.533Z" fill="black"/>
<path d="M361.399 644.288L362.901 644.385L362.957 645.316L360.447 645.56C360.041 645.554 359.489 645.711 358.868 645.749C358.222 645.881 357.816 645.874 357.601 645.918C355.927 646.081 354.641 645.94 353.862 645.426C353.083 644.912 352.666 644.189 352.54 643.136C352.459 642.3 352.688 641.444 353.056 640.83C353.425 640.216 354.173 639.703 355.061 639.432C353.913 639.532 352.938 639.372 352.159 638.858C351.38 638.344 350.988 637.526 350.932 636.594C350.857 635.352 351.138 634.306 351.988 633.414C352.838 632.521 354.208 631.972 356.287 631.816C356.718 631.727 357.123 631.734 357.624 631.766C358.556 631.711 359.177 631.673 359.367 631.724L361.877 631.48L361.933 632.412L360.424 632.72L361.399 644.288ZM356.412 632.868C355.17 632.942 354.257 633.309 353.793 633.898C353.235 634.461 353.031 635.221 353.182 636.178C353.238 637.11 353.561 637.808 354.08 638.151C354.599 638.493 355.454 638.723 356.507 638.597C357.749 638.523 358.586 638.441 358.922 638.327L358.466 632.807C358.085 632.705 357.464 632.742 356.412 632.868ZM357.969 639.6L356.917 639.726C356.081 639.807 355.383 640.129 355.04 640.649C354.697 641.168 354.494 641.928 354.575 642.765C354.656 643.602 354.884 644.274 355.403 644.616C355.922 644.959 356.683 645.163 357.735 645.038C358.166 644.949 358.666 644.982 359.123 644.798L359.554 644.71L359.117 639.5C358.806 639.519 358.496 639.537 357.969 639.6Z" fill="black"/>
<path d="M332.046 647.016L331.99 646.084L333.594 645.801L333.24 634.196L331.453 634.023L331.397 633.091L336.626 632.965L336.682 633.896L335.103 634.084L335.432 645.784L341.377 645.645L341.048 633.946L339.356 633.798L339.3 632.866L344.529 632.74L344.585 633.671L343.102 633.885L343.455 645.49L345.027 645.707L345.083 646.639L332.046 647.016Z" fill="black"/>
<path d="M327.638 633.816C328.486 634.45 329.189 635.25 329.599 636.378C330.035 637.412 330.205 638.68 330.229 640.112C330.157 641.519 329.921 642.78 329.331 643.844C328.74 644.908 328.01 645.731 327.046 646.287C326.082 646.844 324.979 647.16 323.857 647.164C321.924 647.156 320.48 646.463 319.474 645.277C318.493 643.996 318.02 642.341 318.01 640.097C317.986 638.665 318.343 637.335 318.933 636.271C319.524 635.207 320.279 634.289 321.243 633.732C322.207 633.175 323.31 632.86 324.527 632.88C325.744 632.901 326.789 633.181 327.638 633.816ZM326.883 644.614C327.569 643.576 327.976 642.055 328.011 640.027C327.994 638.189 327.685 636.68 327.059 635.596C326.433 634.511 325.464 633.946 324.247 633.926C323.03 633.905 322.066 634.462 321.381 635.5C320.695 636.539 320.262 638.154 320.228 640.182C320.219 642.115 320.458 643.504 321.18 644.614C321.806 645.698 322.775 646.263 323.991 646.284C325.164 646.089 326.103 645.627 326.883 644.614Z" fill="black"/>
<path d="M312.131 637.708C312.495 635.972 312.921 634.762 313.556 633.913C313.873 633.489 314.165 633.16 314.526 632.951C314.888 632.742 315.319 632.654 315.724 632.661C316.32 632.719 316.726 632.726 317.011 632.802L317.009 634.329C316.724 634.253 316.223 634.221 315.628 634.163C315.438 634.112 315.222 634.156 314.981 634.295C314.74 634.434 314.594 634.599 314.448 634.764C313.35 636.201 312.751 639.198 312.46 643.704L312.363 645.205L314.505 645.576L314.466 646.482L303.642 645.822L303.681 644.916L305.449 644.779L306.218 633.169L304.361 632.876L304.4 631.969L310.097 632.375L310.058 633.282L308.1 633.368L307.331 644.978L311.146 645.185L311.294 643.493C311.569 641.326 311.794 639.349 312.131 637.708Z" fill="black"/>
<path d="M300.253 644.405L301.774 644.813L301.639 645.693L292.134 644.674L292.208 641.74L293.304 641.83L293.631 643.649L298.251 644.276L298.84 639.036L295.766 638.721L295.359 640.242L294.358 640.177L294.788 635.913L295.789 635.977L295.857 637.625L298.904 638.034L299.475 632.483L294.184 632.084L292.977 634.307L291.887 633.811L292.753 630.58L303.044 631.708L302.91 632.589L301.383 632.587L300.253 644.405Z" fill="black"/>
<path d="M284.817 642.713L287.985 643.053L289.194 639.302L290.36 639.513L289.346 644.436L277.801 642.667L278.314 637.711L279.48 637.922L279.532 641.908L282.745 642.464L284.444 630.798L281.853 630.206L281.987 629.325L289.033 630.398L288.899 631.279L286.491 631.143L284.817 642.713Z" fill="black"/>
<path d="M271.487 633.54L272.368 633.674C272.704 633.56 273.116 633.161 273.459 632.642C273.802 632.123 274.386 631.464 274.9 630.686C275.414 629.907 275.878 629.318 276.195 628.894C276.513 628.469 276.754 628.33 276.944 628.381L279.465 628.853L279.331 629.734L278.59 629.841C278.374 629.885 278.159 629.929 277.867 630.258C277.6 630.492 277.162 630.986 276.699 631.575C276.09 632.328 275.626 632.917 275.214 633.316C274.776 633.81 274.415 634.019 273.958 634.202C274.762 634.621 275.326 635.179 275.648 635.877C275.97 636.574 276.052 637.411 275.892 638.387C275.605 639.838 274.945 640.781 274.032 641.148C273.024 641.489 271.782 641.563 270.141 641.226C269.761 641.124 269.38 641.022 268.81 640.869C268.24 640.716 267.765 640.589 267.48 640.513L264.863 640.015L264.997 639.134L266.594 639.257L268.838 627.839L267.153 627.286L267.288 626.405L272.711 627.451L272.577 628.332L270.79 628.158L269.897 633.012L271.487 633.54ZM268.944 639.988C269.515 640.141 269.99 640.269 270.37 640.37C271.346 640.53 272.062 640.518 272.664 640.17C273.267 639.822 273.635 639.208 273.82 638.137C273.98 637.161 273.898 636.325 273.456 635.697C273.013 635.069 272.398 634.701 271.448 634.446C270.472 634.286 269.807 634.108 269.496 634.127L268.4 639.741L268.944 639.988Z" fill="black"/>
<path d="M258.363 637.662L261.55 638.312L263.044 634.638L264.28 634.969L262.791 639.765L251.5 637.045L252.419 632.097L253.559 632.402L253.206 636.382L256.342 637.222L259.018 625.716L256.477 624.934L256.707 624.078L263.695 625.747L263.466 626.603L261.013 626.251L258.363 637.662Z" fill="black"/>
<path d="M246.36 622.019C247.157 622.844 247.594 623.878 247.789 625.051C247.984 626.223 247.843 627.51 247.461 628.935C247.104 630.266 246.393 631.399 245.568 632.197C244.718 633.089 243.659 633.62 242.556 633.936C241.358 634.226 240.261 634.136 239.026 633.805C238.075 633.55 237.081 633.08 235.827 632.439L235.282 632.191L236.433 629.036L237.669 629.367L237.438 631.75C237.577 631.991 237.836 632.162 238.191 632.359C238.546 632.556 239.09 632.804 239.661 632.957C240.421 633.16 241.137 633.148 241.904 632.946C242.576 632.719 243.325 632.207 243.839 631.428C244.448 630.674 244.918 629.68 245.224 628.54C245.53 627.399 245.715 626.328 245.684 625.302C245.654 624.275 245.382 623.387 244.965 622.664C244.547 621.941 243.864 621.452 242.913 621.198C242.248 621.02 241.773 620.892 241.367 620.885C240.962 620.879 240.626 620.992 240.385 621.131L239.166 622.638L238.076 622.143L239.239 619.704C239.524 619.78 239.93 619.787 240.431 619.82C240.931 619.852 241.337 619.859 241.742 619.865C242.148 619.872 242.718 620.025 243.288 620.178C244.524 620.509 245.588 621.1 246.36 622.019Z" fill="black"/>
<path d="M227.92 630.015L228.244 629.185L230.075 629.573L233.16 620.724L230.984 622.381L223.773 626.866L223.645 627.341L225.185 628.059L224.86 628.889L220.02 627.185L220.345 626.355L221.796 626.642L225.561 615.632L224.117 614.939L224.441 614.109L229.376 615.839L229.051 616.669L227.41 616.331L224.301 625.276L226.356 623.688L233.783 619.159L233.961 618.494L232.327 617.75L232.651 616.92L237.586 618.65L237.262 619.48L235.716 619.168L231.951 630.178L233.3 630.845L232.975 631.675L227.92 630.015Z" fill="black"/>
<path d="M208.827 622.963L210.481 618.313L211.691 618.739L210.793 622.471L214.536 624.085L218.897 613.133L215.913 611.722L216.238 610.892L223.066 613.537L222.742 614.367L220.747 613.832L216.532 624.62L218.305 625.604L217.981 626.434L208.827 622.963Z" fill="black"/>
<path d="M206.289 620.654L207.492 621.485L207.168 622.315L202.525 620.256L202.849 619.426L204.369 619.834L206.403 615.286L200.385 612.655L198.352 617.203L199.65 618.06L199.326 618.89L194.778 616.856L195.102 616.026L196.528 616.408L201.217 605.748L199.894 604.986L200.218 604.156L204.766 606.189L204.442 607.019L202.947 606.517L200.691 611.514L206.708 614.145L208.964 609.148L207.546 608.36L207.87 607.53L212.608 609.615L212.284 610.444L210.884 609.967L206.289 620.654Z" fill="black"/>
<path d="M188.577 613.768L186.778 612.879L188.486 599.28L187.543 598.62L187.962 597.816L192.364 600.014L191.945 600.818L190.45 600.316L189.996 603.148L194.848 605.568L196.841 603.454L195.447 602.571L195.867 601.767L199.819 603.743L199.4 604.547L198.285 604.147L188.577 613.768ZM188.821 610.574L188.483 612.215L189.651 610.898L194.023 606.366L189.811 604.219L188.821 610.574Z" fill="black"/>
<path d="M181.267 599.995C182.34 598.652 183.31 597.69 184.179 597.108C184.661 596.83 184.997 596.716 185.429 596.628C185.834 596.635 186.214 596.737 186.664 596.959C187.209 597.207 187.538 597.499 187.798 597.67L187.226 599.045C186.966 598.873 186.611 598.676 185.997 598.308C185.832 598.162 185.642 598.111 185.427 598.155C185.211 598.199 184.996 598.244 184.755 598.383C183.214 599.192 181.335 601.642 179.048 605.613L178.286 606.937L180.078 608.232L179.659 609.036L170.273 603.771L170.692 602.967L172.352 603.615L178.036 593.425L176.479 592.396L176.898 591.592L181.958 594.374L181.539 595.178L179.81 594.409L174.151 604.505L177.438 606.302L178.251 604.789C179.14 602.99 180.194 601.337 181.267 599.995Z" fill="black"/>
<path d="M153.219 593.294L153.733 592.515L155.367 593.258L161.571 583.411L160.228 582.338L160.743 581.559L165.347 584.524L164.832 585.303L163.293 584.585L157.089 594.433L158.432 595.506L157.917 596.285L153.219 593.294ZM166.031 594.894C164.733 594.037 163.961 593.117 163.62 592.109C163.279 591.1 163.464 590.03 164.175 588.896C164.912 587.667 165.901 587.016 167.074 586.821C168.247 586.626 169.482 586.957 170.806 587.719C170.97 587.865 171.16 587.916 171.325 588.062C171.49 588.208 171.654 588.354 171.844 588.405C172.433 588.868 172.952 589.211 173.377 589.528L175.549 590.925L175.035 591.704L173.59 591.011L167.387 600.859L168.539 601.881L168.025 602.66L163.49 599.815L164.005 599.036L165.734 599.805L168.039 596.145L166.031 594.894ZM171.374 589.399C171.21 589.253 170.95 589.082 170.5 588.859C169.626 588.319 168.771 588.09 168.004 588.292C167.237 588.494 166.583 589.032 165.923 589.976C165.383 590.849 165.18 591.61 165.382 592.377C165.583 593.144 166.121 593.797 166.995 594.337L168.648 595.391L172.007 590.078C171.798 589.716 171.634 589.57 171.374 589.399Z" fill="black"/>
<path d="M146.78 587.29L147.812 588.382L147.298 589.161L143.22 586.133L143.734 585.354L145.153 586.141L148.181 582.064L142.9 578.204L139.872 582.282L140.904 583.373L140.39 584.152L136.407 581.15L136.921 580.371L138.27 581.038L145.158 571.679L144.1 570.683L144.615 569.904L148.693 572.932L148.178 573.711L146.855 572.949L143.655 577.286L148.936 581.146L152.136 576.808L150.914 575.666L151.428 574.887L155.601 577.94L155.087 578.719L153.763 577.957L146.78 587.29Z" fill="black"/>
<path d="M130.943 576.833L129.366 575.494L133.951 562.564L133.179 561.645L133.763 560.986L137.625 564.058L137.016 564.812L135.718 563.955L134.694 566.634L138.955 570.119L141.416 568.537L140.289 567.42L140.873 566.762L144.311 569.517L143.727 570.175L142.663 569.584L130.943 576.833ZM131.948 573.843L131.325 575.408L132.726 574.357L137.94 570.865L134.268 567.844L131.948 573.843Z" fill="black"/>
<path d="M119.84 565.812L121.15 567.385L120.566 568.043L116.901 564.617L120.662 556.661L121.844 554.533L119.839 555.931L112.248 560.314L108.652 557.008L109.236 556.35L110.933 557.619L117.751 548.14L116.675 546.833L117.259 546.175L121.158 549.868L120.575 550.526L119.207 549.549L114.154 556.242L111.958 559.116L114.368 557.725L123.354 552.697L124.247 553.547L120.402 562.194L118.795 565.532L121.485 563.095L127.785 557.449L126.519 556.092L127.103 555.433L130.699 558.739L130.115 559.398L128.842 558.446L119.84 565.812Z" fill="black"/>
<path d="M103.512 551.862L102.081 550.359L108.205 538.147L107.554 537.158L108.232 536.525L111.657 540.09L110.978 540.723L109.705 539.771L108.302 542.349L112.15 546.232L114.75 544.892L113.769 543.61L114.448 542.977L117.569 546.156L116.89 546.789L115.947 546.129L103.512 551.862ZM104.897 548.974L104.084 550.488L105.625 549.678L111.281 546.814L107.926 543.369L104.897 548.974Z" fill="black"/>
<path d="M97.3046 543.476L98.0953 544.707L97.4164 545.34L95.7772 543.475C95.448 543.183 95.1443 542.796 94.8151 542.504C94.3212 542.066 93.8529 541.533 93.4541 541.121C92.2832 539.788 91.6826 538.609 91.6521 537.582C91.6217 536.555 92.1614 535.681 93.1322 534.719C93.9061 534.112 94.6546 533.599 95.4912 533.518C96.3534 533.341 97.2342 533.476 98.064 533.8C98.8938 534.124 99.6473 534.733 100.35 535.533C100.584 535.799 100.818 536.066 101.052 536.332C101.286 536.599 101.426 536.84 101.521 536.865L104.598 534.125L103.009 532.069L103.688 531.436L107.764 535.992L107.085 536.625L105.933 535.603L97.3046 543.476ZM99.6455 536.261C99.0125 535.582 98.2081 535.163 97.4224 535.054C96.6367 534.945 95.6031 535.381 94.6323 536.343C93.8329 537.046 93.4391 537.755 93.451 538.471C93.4628 539.188 93.8547 540.006 94.5572 540.805C94.7914 541.072 95.1206 541.363 95.4498 541.655C95.6144 541.801 95.779 541.947 95.8486 542.068L100.791 537.688C100.557 537.422 100.183 536.914 99.6455 536.261Z" fill="black"/>
<path d="M97.6044 525.63C97.7995 526.803 97.6144 527.874 97.0238 528.938C96.5281 530.027 95.6523 531.015 94.5865 531.952C93.5207 532.888 92.3666 533.394 91.1939 533.589C90.0212 533.784 88.8044 533.764 87.715 533.268C86.6 532.867 85.6565 532.207 84.8149 531.167C84.2074 530.393 83.5558 529.403 82.9551 528.224L82.7023 527.647L85.3855 525.616L86.1576 526.535L84.6471 528.372C84.6912 528.587 84.7098 528.898 84.8931 529.354C85.1018 529.716 85.3801 530.198 85.7534 530.705C86.2913 531.359 86.9056 531.727 87.6659 531.931C88.4261 532.134 89.2628 532.053 90.1504 531.782C91.038 531.51 92.0019 530.954 92.9218 530.181C93.8417 529.409 94.546 528.681 95.0858 527.807C95.6255 526.933 95.9498 526.104 95.9634 525.292C95.9771 524.481 95.6801 523.689 95.1677 522.94C94.7944 522.433 94.3701 522.115 94.0409 521.823C93.7117 521.532 93.4266 521.455 93.116 521.474L91.2204 522.086L90.5688 521.097L92.8582 519.775C93.0228 519.921 93.3521 520.213 93.7763 520.53C94.2005 520.848 94.5552 521.045 94.8844 521.336C95.2136 521.628 95.5173 522.015 96.0112 522.453C96.9733 523.424 97.5044 524.483 97.6044 525.63Z" fill="black"/>
<path d="M67.1304 507.075L67.8788 506.563L69.0242 507.99L76.8448 502.752L74.1006 502.73L65.6663 501.896L65.2793 502.199L65.9936 503.715L65.2452 504.227L62.4301 499.908L63.1786 499.396L64.2103 500.487L73.8892 494.015L73.1494 492.595L73.8979 492.082L76.808 496.427L76.0595 496.939L74.9837 495.633L67.0426 500.94L69.5967 500.912L78.2212 501.797L78.8237 501.449L78.0143 499.908L78.7627 499.395L81.6728 503.74L80.9244 504.252L79.9181 503.066L70.2392 509.538L70.884 510.933L70.1355 511.445L67.1304 507.075Z" fill="black"/>
<path d="M60.5077 496.439C60.1089 496.027 59.8051 495.64 59.4759 495.348C59.1467 495.056 59.033 494.72 58.7989 494.453C58.0336 493.128 57.623 491.999 57.5925 490.973C57.5621 489.946 58.0509 489.262 59.0149 488.705C59.8584 488.218 60.7205 488.042 61.5758 488.271C62.4311 488.5 63.115 488.989 63.7479 489.668C63.1914 488.704 62.9454 487.721 63.1746 486.866C63.4037 486.011 63.8926 485.327 64.641 484.815C65.751 484.093 66.9236 483.898 67.9435 484.273C68.9634 484.649 69.9511 485.524 70.9505 487.116C71.2984 487.719 71.6462 488.321 71.804 488.873C71.9618 489.424 72.145 489.881 72.2587 490.217C72.3724 490.553 72.4165 490.769 72.391 490.864L69.4804 492.223L68.9934 491.379L70.7636 489.715C70.7518 488.998 70.4549 488.206 69.8729 487.337C69.4554 486.614 68.8666 486.15 68.2709 486.093C67.6753 486.035 66.8131 486.211 65.9697 486.698C65.3417 487.141 64.9038 487.635 64.6305 488.275C64.4523 488.94 64.6287 489.802 65.2107 490.671L65.9319 491.781L65.0629 492.363L64.5064 491.399C64.2281 490.917 63.8989 490.625 63.4747 490.308C63.0504 489.99 62.5752 489.863 62.0746 489.831C61.574 489.799 61.0224 489.956 60.4199 490.304C59.6969 490.722 59.3541 491.241 59.2013 491.811C59.1436 492.407 59.2759 493.053 59.6933 493.776C59.9716 494.258 60.2753 494.645 60.63 494.842C60.9592 495.134 61.2443 495.21 61.4598 495.166L63.14 494.598L63.7916 495.587L61.4257 497.194C61.2356 497.143 61.0015 496.877 60.5077 496.439Z" fill="black"/>
<path d="M53.1605 482.044L53.6848 483.509L52.8668 483.9L51.64 481.636C51.4313 481.275 51.153 480.793 50.7797 480.286C50.4064 479.778 50.1977 479.417 50.0585 479.176C49.2492 477.635 48.9591 476.436 48.9982 475.53C49.1323 474.649 49.6211 473.966 50.5851 473.409C51.4031 473.017 52.1702 472.815 52.9305 473.019C53.7162 473.128 54.4001 473.616 54.938 474.27C54.4069 473.211 54.1609 472.228 54.3901 471.373C54.6193 470.518 55.1081 469.834 56.0466 469.372C57.1311 468.746 58.2783 468.646 59.3678 469.142C60.4827 469.542 61.5145 470.633 62.5325 472.536C62.7413 472.897 62.9245 473.354 63.1332 473.716C63.5252 474.534 63.778 475.111 63.9426 475.257L65.0998 477.4L64.2818 477.792L63.396 476.536L53.1605 482.044ZM56.158 476.939L55.6965 476.001C55.279 475.278 54.8107 474.745 54.1455 474.567C53.4802 474.388 52.8336 474.521 52.0156 474.913C51.2926 475.33 50.7597 475.798 50.6069 476.369C50.4541 476.939 50.656 477.706 51.1175 478.644C51.3262 479.006 51.6045 479.488 51.8132 479.849L52.022 480.211L56.645 477.783C56.645 477.783 56.4362 477.421 56.158 476.939ZM61.8095 472.953C61.1834 471.869 60.5505 471.19 59.8157 470.891C59.0809 470.593 58.3393 470.699 57.4958 471.186C56.6523 471.673 56.1194 472.142 56.0362 472.832C55.9529 473.523 56.0598 474.265 56.6163 475.229C57.2424 476.313 57.5648 477.011 57.7736 477.372L62.663 474.71C62.5239 474.469 62.2711 473.892 61.8095 472.953Z" fill="black"/>
<path d="M44.6592 468.155L43.7361 466.277L53.3491 456.63L53.0336 455.527L53.8516 455.135L56.0201 459.587L55.202 459.979L54.3418 458.628L52.1846 460.596L54.5363 465.505L57.4078 465.052L56.909 463.492L57.727 463.1L59.6172 467.07L58.7992 467.462L58.1476 466.472L44.6592 468.155ZM46.8231 465.781L45.4908 466.951L47.2151 466.599L53.4587 465.725L51.3598 461.394L46.8231 465.781Z" fill="black"/>
<path d="M52.0361 452.408C51.851 453.479 51.3554 454.568 50.6256 455.391C49.8958 456.214 48.7604 457.031 47.4858 457.606C46.2113 458.181 44.9435 458.351 43.7522 458.235C42.5609 458.12 41.4459 457.719 40.5024 457.059C39.5589 456.399 38.8123 455.384 38.3066 454.23C37.9401 453.317 37.6246 452.213 37.36 450.92L37.2277 450.274L40.3979 449.086L40.9035 450.24L38.8992 451.638C38.8482 451.828 38.8414 452.234 38.9296 452.665C39.0178 453.096 39.1756 453.648 39.4284 454.225C39.7508 454.922 40.1937 455.55 40.903 455.944C41.6123 456.338 42.3726 456.541 43.3043 456.485C44.236 456.429 45.3137 456.209 46.4677 455.703C47.5013 455.267 48.4653 454.711 49.2646 454.008C50.064 453.306 50.5528 452.622 50.782 451.766C51.1062 450.937 51.0248 450.1 50.6329 449.282C50.3801 448.705 50.1018 448.223 49.8676 447.956C49.6334 447.69 49.3993 447.424 49.0191 447.322L46.9911 447.288L46.6756 446.184L49.2874 445.56C49.4266 445.801 49.6353 446.163 49.939 446.55C50.2428 446.937 50.5719 447.229 50.7806 447.59C50.9894 447.952 51.2677 448.433 51.5205 449.01C52.0261 450.165 52.2211 451.337 52.0361 452.408Z" fill="black"/>
<path d="M35.8454 440.227C34.7745 440.041 33.7801 439.571 33.0266 438.962C32.2732 438.353 31.6912 437.484 31.3501 436.476C30.9395 435.347 30.8141 434.295 31.0942 433.25C31.3743 432.204 31.819 431.305 32.6184 430.602C33.4432 429.805 34.4072 429.248 35.6563 428.768C37.1209 428.244 38.3886 428.074 39.6054 428.095C40.7967 428.21 41.9117 428.611 42.7602 429.245C43.6086 429.88 44.2857 430.775 44.7218 431.808C45.1323 432.937 45.2324 434.084 45.0473 435.155C44.8622 436.226 44.3225 437.1 43.4976 437.897C42.6728 438.695 41.6833 439.346 40.4343 439.826L41.5083 442.661L46.5996 440.765L46.2213 439.136L47.1089 438.865L48.865 443.715L47.9774 443.987L47.2376 442.566L36.3828 446.584L36.6915 448.093L35.8039 448.364L34.0224 443.609L34.91 443.337L35.6498 444.758L40.4051 442.976L39.3311 440.142C38.133 440.432 36.8907 440.507 35.8454 440.227ZM34.7068 438.394C35.9422 438.725 37.5205 438.536 39.4671 437.734C41.1727 437.071 42.4032 436.28 43.1839 435.267C43.9646 434.254 44.1497 433.183 43.7391 432.054C43.3285 430.926 42.48 430.291 41.3396 429.985C40.1992 429.68 38.5955 429.963 36.6743 430.67C34.9687 431.334 33.7383 432.125 32.983 433.043C32.2023 434.056 32.0427 435.032 32.4532 436.16C32.7433 437.358 33.5664 438.088 34.7068 438.394Z" fill="black"/>
<path d="M34.0515 419.171C34.5403 418.487 35.1751 417.639 36.0509 416.651C36.6347 415.993 37.0726 415.499 37.39 415.075C37.6819 414.746 37.7583 414.46 37.8092 414.27L37.7974 413.554L38.685 413.283L39.4111 415.515C39.5503 415.756 39.3279 416.205 39.0105 416.629C38.6677 417.149 38.0838 417.807 37.259 418.605C36.3832 419.592 35.6789 420.32 35.2155 420.909C34.7522 421.498 34.6249 421.973 34.7385 422.309L35.0541 423.412L40.1641 421.828L39.9063 420.129L40.7939 419.857L42.3344 424.752L41.4468 425.023L40.8021 423.628L29.6944 427.069L29.9081 428.552L29.0205 428.824L27.5496 424.05L28.4372 423.778L29.082 425.173L34.192 423.589L33.6931 422.029L27.4023 420.038L27.6856 421.642L26.798 421.913L25.4407 417.475L26.3283 417.204L26.9985 418.504L33.4285 420.736C33.3149 420.4 33.5881 419.76 34.0515 419.171Z" fill="black"/>
<path d="M37.041 410.296C36.6658 411.315 36.031 412.164 35.1366 412.841C34.2422 413.518 33.0627 414.119 31.7441 414.478C30.3304 414.813 29.0881 414.887 27.9223 414.677C26.7564 414.466 25.7874 413.901 24.9644 413.171C24.1414 412.441 23.5848 411.477 23.2947 410.279C22.7773 408.409 22.9946 406.837 23.9723 405.47C24.9244 404.197 26.3959 403.267 28.4816 402.706C29.8953 402.371 31.2326 402.322 32.3985 402.533C33.5643 402.743 34.6283 403.334 35.4513 404.064C36.2744 404.794 36.831 405.758 37.121 406.956C37.4111 408.154 37.4161 409.276 37.041 410.296ZM26.3849 412.431C27.5949 412.857 29.1477 412.764 31.113 412.272C32.9577 411.85 34.2832 411.084 35.1335 410.192C35.9838 409.299 36.2894 408.159 35.9738 407.056C35.6837 405.858 34.8607 405.128 33.6507 404.702C32.4408 404.276 30.7929 404.343 28.8276 404.835C26.9829 405.258 25.6574 406.023 24.8071 406.916C23.9568 407.808 23.6767 408.854 23.9668 410.052C24.4724 411.206 25.27 412.031 26.3849 412.431Z" fill="black"/>
<path d="M22.1908 400.714L22.284 402.267L21.4219 402.444L20.8671 399.952C20.7789 399.521 20.6212 398.97 20.4634 398.418C20.3056 397.867 20.1223 397.41 20.1037 397.099C19.7509 395.375 19.7713 394.158 20.0955 393.329C20.4198 392.499 21.1682 391.986 22.1508 391.74C23.013 391.564 23.7987 391.673 24.5335 391.971C25.2428 392.365 25.8062 392.923 26.1982 393.741C25.9081 392.543 25.9472 391.637 26.3664 390.833C26.7857 390.028 27.5341 389.516 28.4913 389.365C29.6895 389.075 30.8553 389.285 31.7734 390.041C32.7169 390.701 33.4567 392.121 33.8536 394.061C33.9418 394.492 34.0301 394.923 34.0232 395.329C34.1742 396.286 34.332 396.838 34.3761 397.053L34.9563 399.449L34.0941 399.626L33.5699 398.161L22.1908 400.714ZM26.4355 396.657L26.1895 395.674C26.0131 394.812 25.6652 394.21 25.0509 393.842C24.5317 393.499 23.746 393.39 22.8584 393.661C21.9962 393.838 21.3937 394.186 21.1459 394.73C20.8981 395.275 20.7894 396.061 21.0099 397.139C21.0981 397.57 21.1864 398.001 21.3696 398.457L21.4833 398.793L26.561 397.709C26.6119 397.519 26.4983 397.183 26.4355 396.657ZM32.871 394.307C32.5809 393.109 32.189 392.291 31.5051 391.802C30.9162 391.339 30.1305 391.23 29.1479 391.476C28.1907 391.627 27.5628 392.07 27.3149 392.615C26.9721 393.134 26.933 394.04 27.1535 395.118C27.4436 396.316 27.62 397.178 27.7337 397.514L33.1474 396.317C33.2238 396.031 33.0915 395.385 32.871 394.307Z" fill="black"/>
<path d="M15.7291 371.991L16.6862 371.84L17.185 373.399L28.6709 371.588L28.6287 369.845L29.5858 369.694L30.4288 374.911L29.4716 375.062L29.0679 373.528L17.582 375.339L18.5318 381.298L30.1128 379.512L30.0705 377.769L31.0277 377.618L31.7756 382.809L30.8185 382.96L30.3892 381.521L18.9033 383.333L18.876 384.955L17.9188 385.106L15.7291 371.991Z" fill="black"/>
<path d="M28.3612 365.903C27.9165 366.802 27.0916 367.6 26.1277 368.156C25.1637 368.713 23.94 369.098 22.4823 369.217C21.0245 369.335 19.7381 369.194 18.6232 368.794C17.5082 368.393 16.5647 367.733 15.8876 366.839C15.2106 365.944 14.7745 364.911 14.6745 363.763C14.4676 361.875 14.9005 360.259 16.0173 359.132C17.1341 358.005 18.7447 357.317 20.9441 357.091C22.4019 356.972 23.6882 357.113 24.8032 357.514C25.9181 357.915 26.8616 358.575 27.6337 359.495C28.3107 360.389 28.7468 361.423 28.8468 362.57C28.991 363.933 28.8059 365.003 28.3612 365.903ZM17.5169 366.46C18.6759 367.076 20.1778 367.173 22.2567 367.017C24.1456 366.81 25.4897 366.356 26.5301 365.514C27.545 364.767 28.0152 363.773 27.8456 362.505C27.7455 361.358 27.0685 360.464 25.9094 359.847C24.7504 359.231 23.1535 359.109 21.1696 359.29C19.2807 359.497 17.8416 359.927 16.8962 360.794C15.8813 361.54 15.5062 362.56 15.6758 363.828C15.7503 365.07 16.4274 365.965 17.5169 366.46Z" fill="black"/>
<path d="M22.4529 351.079C24.1449 351.226 25.5008 351.488 26.4002 351.933C26.8499 352.155 27.1791 352.447 27.4133 352.713C27.622 353.075 27.7357 353.411 27.8239 353.842C27.8612 354.463 27.8543 354.869 27.7779 355.154L26.2947 355.367C26.276 355.057 26.2829 354.651 26.271 353.935C26.2269 353.72 26.1828 353.504 26.0182 353.358C25.8536 353.212 25.689 353.066 25.4294 352.895C23.9157 352.082 20.8423 351.767 16.2788 352.073L14.8211 352.191L14.7615 354.314L13.8298 354.37L13.1519 343.595L14.0836 343.539L14.4364 345.264L26.0478 344.504L26.1261 342.692L27.0577 342.636L27.4628 348.347L26.5312 348.403L26.2293 346.488L14.6433 347.153L14.8415 350.974L16.4894 350.907C18.828 350.922 20.7609 350.931 22.4529 351.079Z" fill="black"/>
<path d="M14.2842 340.13L14.0668 341.701L13.1351 341.757L12.9374 332.232L15.8784 331.899L15.9089 332.926L14.1337 333.469L14.1028 338.146L19.3315 338.019L19.2401 334.939L17.6686 334.722L17.6381 333.695L21.9351 333.624L21.9656 334.651L20.3618 334.934L20.3327 338.084L25.872 337.938L25.555 332.659L23.1606 331.712L23.4662 330.571L26.7041 331.031L26.8882 341.368L25.9565 341.424L25.7683 339.846L14.2842 340.13Z" fill="black"/>
<path d="M14.0685 324.59L14.1344 327.765L18.0122 328.499L17.9917 329.715L13.0108 329.298L13.2783 317.656L18.2914 317.573L18.271 318.79L14.3473 319.368L14.1977 322.587L25.96 322.785L26.1724 320.092L27.0786 320.131L26.9117 327.216L26.0055 327.177L25.8563 324.693L14.0685 324.59Z" fill="black"/>
<path d="M21.4944 310.181L21.4553 311.087C21.664 311.448 21.9932 311.74 22.6075 312.109C23.1268 312.451 23.8362 312.845 24.7356 313.29C25.635 313.735 26.2493 314.103 26.699 314.325C27.1487 314.548 27.3829 314.814 27.3319 315.004L27.1705 317.507L26.2643 317.468L26.1574 316.727C26.1133 316.511 25.9487 316.365 25.7145 316.099C25.3599 315.902 24.9356 315.584 24.2517 315.096C23.4474 314.676 22.8585 314.213 22.3393 313.87C21.82 313.527 21.5162 313.14 21.3075 312.779C20.9833 313.609 20.52 314.198 19.7715 314.71C19.0485 315.127 18.2814 315.329 17.2802 315.265C15.7783 315.168 14.7838 314.698 14.2273 313.734C13.6707 312.77 13.5011 311.502 13.6235 309.905C13.6303 309.499 13.7321 309.119 13.7899 308.524C13.8476 307.928 13.975 307.453 13.9563 307.142L14.1687 304.449L15.0749 304.488L15.1681 306.041L26.7777 306.809L27.046 305.048L27.9522 305.087L27.5971 310.594L26.6908 310.554L26.674 308.717L21.6677 308.394L21.4944 310.181ZM14.7216 308.468C14.5688 309.038 14.5365 309.539 14.5297 309.944C14.4651 310.945 14.572 311.687 15.0403 312.22C15.5087 312.753 16.1484 313.026 17.2447 313.116C18.246 313.181 19.0131 312.979 19.641 312.536C20.269 312.093 20.4727 311.333 20.6323 310.357C20.6969 309.356 20.7546 308.76 20.6664 308.329L14.9694 307.923L14.7216 308.468Z" fill="black"/>
<path d="M15.6658 297.72L15.4211 300.914L19.2225 301.933L19.107 303.124L14.1329 302.301L15.4016 290.723L20.4079 291.046L20.2924 292.238L16.3756 292.41L15.9154 295.648L27.5877 296.943L28.0852 294.326L28.966 294.46L28.1779 301.582L27.2971 301.448L27.3381 299.015L15.6658 297.72Z" fill="black"/>
<path d="M29.79 283.782C29.0602 284.605 28.0707 285.256 26.9676 285.572C25.8645 285.888 24.5272 285.937 23.1713 285.675C21.8153 285.414 20.6053 284.988 19.6873 284.232C18.7692 283.477 17.9972 282.557 17.5866 281.429C17.176 280.3 17.0759 279.153 17.3119 277.892C17.4715 276.916 17.7771 275.776 18.2982 274.591L18.546 274.046L21.8281 274.722L21.5921 275.983L19.1331 276.037C18.9871 276.202 18.8157 276.461 18.5933 276.911C18.3964 277.266 18.2436 277.836 18.1859 278.432C18.0772 279.217 18.1841 279.959 18.5065 280.657C18.8288 281.354 19.3922 281.912 20.2662 282.452C21.0451 282.966 22.0904 283.247 23.3513 283.483C24.5172 283.693 25.5439 283.663 26.5961 283.537C27.5533 283.386 28.4663 283.02 29.1198 282.482C29.7732 281.944 30.167 281.235 30.3266 280.259C30.4098 279.568 30.4421 279.067 30.4234 278.757C30.4048 278.446 30.2911 278.11 30.0824 277.749L28.4295 276.695L28.7351 275.554L31.2501 276.432C31.1737 276.717 31.2874 277.053 31.3501 277.579C31.4383 278.01 31.4061 278.511 31.4943 278.942C31.5825 279.373 31.4551 279.848 31.3719 280.539C31.0409 281.774 30.5453 282.864 29.79 283.782Z" fill="black"/>
<path d="M19.5566 266.474L20.4373 266.608L20.2641 268.395L29.4196 270.339L27.4953 268.398L22.1416 261.769L21.6664 261.641L21.1385 263.231L20.2577 263.097L21.2968 258.079L22.1775 258.213L22.0807 259.715L33.4474 262.15L33.9499 260.655L34.8052 260.884L33.7407 265.997L32.8854 265.768L33.0332 264.076L23.6876 262.081L25.5423 263.902L30.9656 270.652L31.6308 270.83L32.1842 269.145L33.065 269.279L32.0005 274.392L31.1197 274.258L31.242 272.661L19.8753 270.226L19.3983 271.627L18.5175 271.492L19.5566 266.474Z" fill="black"/>
<path d="M24.1371 246.719L28.9397 247.802L28.6086 249.038L24.8446 248.64L23.68 252.606L35.135 255.472L36.1654 252.387L37.0207 252.616L35.2314 259.674L34.3761 259.445L34.7208 257.398L23.4559 254.583L22.7565 256.433L21.9012 256.204L24.1371 246.719Z" fill="black"/>
<path d="M26.1176 243.888L25.4506 245.237L24.5952 245.008L26.1095 240.117L26.9648 240.347L26.7474 241.918L31.5432 243.407L33.4394 237.09L28.6436 235.602L27.9765 236.951L27.1212 236.722L28.6099 231.926L29.4653 232.155L29.2733 233.632L40.3855 237.016L40.9575 235.642L41.8128 235.871L40.3241 240.667L39.4688 240.438L39.7812 238.892L34.6052 237.301L32.7091 243.617L37.885 245.208L38.4825 243.738L39.3378 243.968L37.8236 248.858L36.9683 248.629L37.2552 247.178L26.1176 243.888Z" fill="black"/>
<path d="M30.6522 225.445L31.377 223.5L45.0282 223.491L45.6189 222.427L46.4487 222.751L44.7954 227.401L43.9655 227.077L44.2779 225.531L41.3437 225.458L39.563 230.583L41.8488 232.316L42.5414 230.872L43.3712 231.196L41.9402 235.396L41.1104 235.072L41.3209 233.906L30.6522 225.445ZM33.9224 225.405L32.2304 225.257L33.6932 226.26L38.6891 230.043L40.2915 225.583L33.9224 225.405Z" fill="black"/>
<path d="M43.5478 216.474C45.0361 217.382 46.1442 218.188 46.7517 218.962C47.0554 219.349 47.2387 219.805 47.3524 220.141C47.4406 220.572 47.3387 220.953 47.2368 221.333C46.989 221.877 46.7921 222.232 46.6207 222.492L45.2207 222.015C45.3921 221.755 45.5194 221.28 45.7673 220.735C45.8182 220.545 45.8946 220.26 45.825 220.14C45.7809 219.924 45.6418 219.683 45.5026 219.442C44.4523 218.04 41.8304 216.421 37.5862 214.774L36.2116 214.202L35.2017 216.071L34.3719 215.747L38.3829 205.719L39.2127 206.043L38.7544 207.754L49.5168 212.064L50.3553 210.455L51.1851 210.779L49.043 216.113L48.2131 215.789L48.7224 213.888L37.96 209.578L36.5172 213.062L38.0818 213.685C40.2353 214.771 42.0596 215.566 43.5478 216.474Z" fill="black"/>
<path d="M46.5575 200.678C47.2246 199.328 47.9798 198.41 49.0134 197.974C50.0469 197.538 51.0482 197.603 52.2327 198.124C53.4868 198.766 54.3794 199.616 54.6695 200.814C54.985 201.917 54.8441 203.204 54.177 204.553C54.1261 204.743 53.9801 204.907 53.9292 205.097C53.7832 205.262 53.7323 205.452 53.5608 205.712C53.1925 206.326 52.9447 206.871 52.6969 207.415L51.6802 209.689L50.8758 209.27L51.3782 207.775L40.7941 202.8L39.9369 204.098L39.1326 203.679L41.3375 198.871L42.1418 199.291L41.563 201.071L45.4457 202.926L46.5575 200.678ZM46.5603 187.743L47.3647 188.162L46.8113 189.847L57.3004 194.796L58.2085 193.308L59.0129 193.727L56.662 198.7L55.8576 198.28L56.411 196.595L45.9219 191.646L45.0138 193.134L44.2094 192.715L46.5603 187.743ZM52.731 205.387C52.877 205.223 52.9788 204.843 53.1757 204.488C53.6204 203.589 53.6596 202.682 53.3626 201.89C53.0657 201.097 52.4073 200.513 51.4128 200.043C50.5134 199.599 49.6072 199.559 48.9351 199.787C48.2376 200.109 47.6793 200.673 47.2345 201.572L46.4656 203.301L52.1726 205.951C52.4136 205.812 52.585 205.552 52.731 205.387Z" fill="black"/>
<path d="M51.6201 180.644L50.6934 181.822L49.8891 181.402L52.3977 176.982L53.2021 177.401L52.6046 178.871L57.0507 181.284L60.2264 175.515L55.7803 173.101L54.8536 174.279L54.0492 173.859L56.4374 169.508L57.2418 169.928L56.7648 171.328L66.9552 177.012L67.8819 175.834L68.6863 176.253L66.2726 180.7L65.4683 180.28L66.0658 178.811L61.265 176.2L58.0893 181.97L62.89 184.581L63.8677 183.213L64.672 183.632L62.1379 188.148L61.3335 187.728L61.9056 186.354L51.6201 180.644Z" fill="black"/>
<path d="M60.0437 163.65L61.1231 161.902L74.4856 164.872L75.2409 163.954L76.0198 164.468L73.372 168.648L72.5931 168.133L73.2856 166.689L70.4346 165.925L67.5645 170.555L69.4124 172.781L70.4596 171.534L71.2385 172.048L68.9081 175.804L68.1292 175.289L68.6248 174.2L60.0437 163.65ZM63.1357 164.275L61.5201 163.842L62.7164 165.079L66.8365 169.85L69.3383 165.835L63.1357 164.275Z" fill="black"/>
<path d="M69.6095 151.138L68.2704 152.715L67.4915 152.201L70.3989 148.192L78.7296 150.934L81.0291 151.856L79.3899 149.99L74.043 142.956L76.9504 138.947L77.7294 139.462L76.7449 141.235L87.0812 146.755L88.2235 145.533L89.0024 146.047L85.7776 150.48L84.9987 149.965L85.8117 148.452L78.4841 144.247L75.2921 142.475L77.045 144.677L83.1826 152.942L82.4969 153.98L73.45 151.251L69.8897 150.093L72.6184 152.454L78.9938 157.931L80.1869 156.519L80.9658 157.033L78.1789 160.972L77.4 160.458L78.1876 159.039L69.6095 151.138Z" fill="black"/>
<path d="M81.3175 133.293L82.5615 131.692L95.5166 136.181L96.3414 135.384L97.0948 135.993L94.0228 139.855L93.2694 139.246L94.1265 137.948L91.4469 136.924L88.0575 141.211L89.6644 143.577L90.7812 142.45L91.5347 143.059L88.78 146.497L88.0266 145.888L88.6172 144.824L81.3175 133.293ZM84.333 134.203L82.7684 133.58L83.8188 134.982L87.3109 140.196L90.237 136.498L84.333 134.203Z" fill="black"/>
<path d="M88.8617 126.046L87.7008 126.957L86.9474 126.348L88.5784 124.442C88.8703 124.113 89.1623 123.784 89.3591 123.429C89.797 122.935 90.1399 122.416 90.5778 121.922C91.7455 120.605 92.8809 119.789 93.838 119.638C94.7952 119.487 95.8151 119.862 96.8027 120.738C97.5562 121.348 98.0686 122.096 98.3401 122.984C98.6115 123.871 98.5979 124.682 98.3687 125.538C98.1395 126.393 97.6948 127.292 96.9905 128.02C96.724 128.255 96.5271 128.609 96.2607 128.843C95.9942 129.078 95.8482 129.242 95.8228 129.337L98.9757 132.015L100.771 130.256L101.43 130.84L97.4379 135.474L96.7795 134.89L97.6366 133.592L88.8617 126.046ZM96.3321 127.437C96.9414 126.683 97.2656 125.853 97.1842 125.017C97.1028 124.18 96.6158 123.336 95.5586 122.34C94.7356 121.61 94.0008 121.312 93.2592 121.418C92.5176 121.525 91.8896 121.968 91.0393 122.861C90.7474 123.19 90.5505 123.545 90.2586 123.874C90.0871 124.133 89.9666 124.203 89.9412 124.298L94.9998 128.607C95.3358 128.494 95.7482 128.095 96.3321 127.437Z" fill="black"/>
<path d="M106.698 124.103C105.595 124.418 104.498 124.328 103.358 124.023C102.243 123.622 101.179 123.031 100.122 122.035C99.1598 121.064 98.4132 120.049 98.028 118.826C97.6174 117.697 97.6379 116.48 97.8484 115.314C98.154 114.174 98.6496 113.085 99.595 112.217C100.299 111.489 101.099 110.787 102.329 109.996L102.837 109.623L105.134 112.072L104.284 112.965L102.181 111.688C101.966 111.732 101.63 111.846 101.268 112.055C100.907 112.263 100.494 112.662 100.082 113.061C99.5236 113.624 99.2248 114.359 99.1416 115.05C99.0329 115.836 99.2348 116.603 99.6013 117.516C99.9933 118.334 100.67 119.228 101.563 120.078C102.36 120.903 103.329 121.468 104.229 121.913C105.128 122.358 106.009 122.492 106.846 122.411C107.682 122.329 108.405 121.912 109.084 121.279C109.522 120.785 109.839 120.361 110.011 120.101C110.182 119.842 110.284 119.461 110.266 119.151L109.438 117.299L110.357 116.527L112.015 118.703C111.869 118.868 111.672 119.222 111.425 119.767C111.202 120.217 111.005 120.571 110.808 120.926C110.612 121.281 110.294 121.705 109.856 122.199C108.79 123.135 107.706 123.762 106.698 124.103Z" fill="black"/>
<path d="M117.767 94.5762L118.4 95.255L117.207 96.6669L123.485 103.646L123.102 100.895L122.719 92.44L122.416 92.053L121.039 93.0084L120.406 92.3295L124.283 88.8865L124.916 89.5653L123.989 90.743L131.742 99.4412L132.998 98.5554L133.631 99.2343L129.754 102.677L129.122 101.998L130.264 100.777L123.916 93.6772L124.35 96.2382L124.682 104.883L125.15 105.416L126.552 104.366L127.185 105.045L123.283 108.583L122.65 107.904L123.672 106.751L115.919 98.0533L114.688 98.844L114.055 98.1651L117.767 94.5762Z" fill="black"/>
<path d="M127.448 86.5771C127.765 86.1529 128.083 85.7286 128.375 85.3994C128.667 85.0702 128.933 84.836 129.2 84.6019C130.386 83.5956 131.54 83.09 132.497 82.939C133.454 82.7881 134.259 83.2073 134.961 84.0067C135.569 84.7806 135.866 85.5732 135.731 86.4539C135.597 87.3347 135.298 88.0695 134.689 88.823C135.584 88.1459 136.497 87.7794 137.377 87.9136C138.284 87.9527 138.993 88.3465 139.6 89.1204C140.442 90.1607 140.758 91.2639 140.573 92.3347C140.388 93.4055 139.581 94.5136 138.154 95.659C137.621 96.1274 137.019 96.4752 136.537 96.7535C136.055 97.0318 135.598 97.215 135.262 97.3287C134.926 97.4424 134.711 97.4865 134.685 97.5815L132.869 94.8542L133.643 94.2467L135.574 95.7827C136.221 95.6504 137.039 95.2584 137.838 94.5559C138.492 94.018 138.86 93.4037 138.823 92.7826C138.811 92.0664 138.584 91.3943 137.881 90.595C137.438 89.967 136.824 89.5987 136.133 89.5155C135.443 89.4323 134.65 89.7292 133.756 90.4062L132.715 91.2479L132.013 90.4485L132.812 89.746C133.199 89.4423 133.516 89.018 133.739 88.5683C133.961 88.1186 134.089 87.6434 134.026 87.1173C133.963 86.5913 133.685 86.1093 133.311 85.6018C132.774 84.9484 132.254 84.6055 131.633 84.6428C131.012 84.6801 130.435 84.9329 129.807 85.3758C129.395 85.7746 129.103 86.1038 128.811 86.433C128.519 86.7622 128.537 87.0727 128.582 87.2883L129.391 88.8293L128.471 89.6014L126.503 87.4442C126.744 87.3051 127.036 86.9759 127.448 86.5771Z" fill="black"/>
<path d="M140.635 77.2768L139.215 78.0166L138.702 77.2682L140.732 75.7749C141.094 75.5662 141.506 75.1674 142.014 74.7941C142.426 74.3954 142.813 74.0916 143.054 73.9525C144.456 72.9021 145.61 72.3965 146.516 72.4356C147.422 72.4747 148.227 72.894 148.834 73.6679C149.347 74.4163 149.549 75.1834 149.535 75.9946C149.521 76.8058 149.128 77.5152 148.544 78.1736C149.464 77.4015 150.446 77.1555 151.352 77.1946C152.259 77.2337 153.038 77.748 153.55 78.4964C154.297 79.5114 154.517 80.589 154.307 81.7549C154.096 82.9207 153.074 84.073 151.406 85.3575C151.019 85.6612 150.658 85.87 150.296 86.0787C149.453 86.5657 149.04 86.9644 148.825 87.0085L146.795 88.5018L146.282 87.7533L147.374 86.7216L140.635 77.2768ZM146.039 79.5395L146.908 78.9575C147.656 78.445 148.024 77.8307 148.082 77.235C148.14 76.6394 147.938 75.8723 147.426 75.1238C146.913 74.3754 146.394 74.0325 145.798 73.9748C145.202 73.917 144.41 74.214 143.636 74.8214C143.249 75.1252 142.888 75.3339 142.596 75.6631L142.329 75.8973L145.385 80.0774C145.29 80.0519 145.652 79.8432 146.039 79.5395ZM150.824 84.4886C151.839 83.7419 152.448 82.9885 152.557 82.2027C152.666 81.417 152.464 80.6499 151.951 79.9015C151.344 79.1276 150.755 78.6642 150.159 78.6065C149.469 78.5232 148.771 78.8456 147.877 79.5227C146.862 80.2693 146.234 80.7122 145.967 80.9463L149.232 85.488C149.448 85.4439 149.955 85.0706 150.824 84.4886Z" fill="black"/>
<path d="M153.196 66.8916L154.934 65.7276L165.869 73.9542L166.928 73.4231L167.441 74.1716L163.337 76.9425L162.824 76.1941L164.011 75.1878L161.75 73.3599L157.165 76.4091L157.954 79.1669L159.374 78.4271L159.887 79.1756L156.17 81.6428L155.657 80.8943L156.482 80.0968L153.196 66.8916ZM155.862 68.7264L154.52 67.6537L155.088 69.3339L156.824 75.401L160.781 72.7947L155.862 68.7264Z" fill="black"/>
<path d="M169.769 71.9435C168.647 71.9485 167.627 71.5734 166.563 70.9827C165.62 70.3225 164.753 69.3772 163.962 68.1467C163.266 66.9417 162.881 65.7181 162.781 64.5709C162.681 63.4236 163.012 62.1882 163.577 61.2192C164.168 60.1552 164.993 59.3577 166.103 58.6365C166.946 58.1495 167.98 57.7135 169.324 57.2588L169.901 57.006L171.45 59.9675L170.366 60.5936L168.701 58.8234C168.511 58.7725 168.175 58.8862 167.744 58.9744C167.313 59.0626 166.831 59.3409 166.349 59.6191C165.626 60.0366 165.163 60.6254 164.889 61.2652C164.59 62 164.482 62.7857 164.633 63.7429C164.784 64.7 165.22 65.7336 165.871 66.723C166.523 67.7125 167.2 68.6069 167.953 69.2162C168.707 69.8255 169.511 70.2448 170.367 70.4739C171.222 70.7031 171.989 70.5012 172.832 70.0142C173.435 69.6664 173.822 69.3626 173.993 69.103C174.26 68.8688 174.457 68.5142 174.533 68.2291L174.257 66.2197L175.316 65.6886L176.276 68.1868C176.035 68.3259 175.768 68.5601 175.451 68.9843C175.159 69.3135 174.867 69.6428 174.48 69.9465C174.188 70.2757 173.706 70.554 173.224 70.8323C172.089 71.6485 170.891 71.9385 169.769 71.9435Z" fill="black"/>
<path d="M179.518 54.1846C179.608 53.0883 179.888 52.0429 180.428 51.1689C180.968 50.295 181.647 49.662 182.611 49.1055C183.695 48.4794 184.773 48.2588 185.774 48.3234C186.775 48.388 187.795 48.7631 188.618 49.4929C189.441 50.2227 190.213 51.1426 190.935 52.2526C191.7 53.578 192.059 54.8967 192.134 56.139C192.209 57.3812 192.024 58.4521 191.458 59.421C190.893 60.39 190.189 61.118 189.225 61.6746C188.14 62.3007 187.063 62.5212 185.966 62.4312C184.965 62.3666 183.945 61.9914 183.097 61.3567C182.248 60.7219 181.381 59.7766 180.78 58.597L178.155 60.0325L180.748 64.8015L182.238 64.1822L182.63 65.0002L178.102 67.4538L177.71 66.6358L178.966 65.75L173.458 55.5145L171.993 56.0388L171.506 55.1953L175.914 52.8113L176.401 53.6548L175.145 54.5406L177.529 58.9481L180.249 57.538C179.718 56.479 179.498 55.4014 179.518 54.1846ZM181.282 52.9255C181.141 54.2118 181.544 55.746 182.588 57.5535C183.492 59.12 184.404 60.2808 185.563 60.897C186.722 61.5131 187.723 61.5777 188.902 60.977C189.961 60.4459 190.527 59.477 190.547 58.2602C190.568 57.0434 190.164 55.5092 189.215 53.7272C188.311 52.1607 187.4 50.9998 186.336 50.4092C185.272 49.8185 184.175 49.7285 183.116 50.2595C182.057 50.7906 181.423 51.6391 181.282 52.9255Z" fill="black"/>
<path d="M200.242 49.4501C200.952 49.8439 201.826 50.3836 202.985 50.9998C203.763 51.514 204.283 51.8569 204.732 52.0792C205.182 52.3016 205.372 52.3525 205.588 52.3084L206.329 52.2016L206.721 53.0196L204.629 53.9867C204.388 54.1259 204.008 54.024 203.463 53.7762C202.918 53.5284 202.234 53.0396 201.291 52.3793C200.278 51.5986 199.404 51.0589 198.789 50.6905C198.175 50.3222 197.675 50.2899 197.338 50.4036L196.279 50.9347L198.562 55.7223L200.121 55.2235L200.513 56.0415L195.846 58.2541L195.454 57.4361L196.78 56.6708L191.849 46.1825L190.41 46.6118L190.018 45.7937L194.564 43.6507L194.956 44.4687L193.605 45.329L195.862 50.2117L197.283 49.4719L198.418 42.9519L196.859 43.4507L196.467 42.6326L200.652 40.6983L201.044 41.5164L199.813 42.3071L198.437 48.9663C198.842 48.9731 199.507 49.1513 200.242 49.4501Z" fill="black"/>
<path d="M209.449 51.2038C208.378 51.0187 207.504 50.479 206.706 49.6541C205.909 48.8293 205.162 47.8144 204.612 46.4448C204.063 45.0752 203.773 43.8771 203.888 42.6857C204.004 41.4944 204.284 40.449 204.944 39.5055C205.604 38.562 206.499 37.8849 207.532 37.4489C209.358 36.7159 210.886 36.7177 212.33 37.4103C213.774 38.1028 214.919 39.5301 215.722 41.4767C216.272 42.8463 216.536 44.1395 216.421 45.3308C216.305 46.5222 216 47.6626 215.339 48.6061C214.679 49.5496 213.785 50.2267 212.751 50.6627C211.572 51.2634 210.519 51.3889 209.449 51.2038ZM205.848 41.072C205.612 42.3329 205.921 43.8416 206.629 45.7627C207.387 47.4938 208.273 48.7497 209.311 49.4354C210.324 50.2162 211.421 50.3062 212.575 49.8006C213.703 49.39 214.364 48.4465 214.6 47.1856C214.836 45.9247 214.552 44.3209 213.724 42.4694C212.966 40.7383 212.08 39.4824 211.042 38.7967C210.003 38.1109 208.932 37.9259 207.778 38.4315C206.719 38.9626 206.084 39.8111 205.848 41.072Z" fill="black"/>
<path d="M216.806 35.1466L215.298 35.4553L215.026 34.5677L217.404 33.677C217.835 33.5887 218.317 33.3105 218.894 33.0577C219.471 32.8048 219.833 32.5961 220.143 32.5775C221.728 31.9837 222.996 31.8141 223.851 32.0432C224.707 32.2724 225.365 32.8563 225.706 33.8644C226.003 34.6569 226.084 35.4936 225.786 36.2284C225.487 36.9632 224.998 37.6471 224.275 38.0645C225.404 37.6539 226.335 37.598 227.191 37.8271C228.046 38.0563 228.679 38.7352 229.02 39.7433C229.43 40.8719 229.41 42.0887 228.845 43.0576C228.254 44.1217 226.998 45.0074 225.077 45.7149C224.621 45.8982 224.284 46.0118 223.853 46.1001C222.966 46.3715 222.389 46.6243 222.173 46.6684L219.796 47.5592L219.499 46.7666L220.919 46.0268L216.806 35.1466ZM221.422 38.8279L222.43 38.4869C223.223 38.19 223.756 37.7216 224.029 37.0819C224.302 36.4421 224.29 35.7259 223.899 34.9079C223.602 34.1153 223.133 33.5824 222.589 33.3346C222.044 33.0868 221.207 33.1682 220.199 33.5092C219.742 33.6924 219.381 33.9011 218.924 34.0844L218.563 34.2931L220.414 39.1689C220.535 39.0994 220.871 38.9857 221.422 38.8279ZM224.59 44.8714C225.719 44.4609 226.493 43.8534 226.886 43.144C227.28 42.4347 227.268 41.7185 226.927 40.7104C226.561 39.7974 226.092 39.2645 225.548 39.0166C224.908 38.7434 224.071 38.8247 223.038 39.2608C221.814 39.6459 221.117 39.9683 220.781 40.082L222.745 45.2939C223.005 45.4653 223.677 45.2379 224.59 44.8714Z" fill="black"/>
<path d="M244.33 24.7986L244.602 25.6862L243.181 26.426L246.527 37.5081L248.251 37.1553L248.522 38.0429L243.533 39.5579L243.261 38.6704L244.657 38.0256L241.241 26.8229L235.485 28.5399L238.9 39.7425L240.624 39.3897L240.896 40.2773L235.906 41.7923L235.635 40.9047L237.03 40.26L233.684 29.1778L232.08 29.4611L231.809 28.5735L244.33 24.7986Z" fill="black"/>
<path d="M252.131 36.3614C251.111 35.9863 250.263 35.3515 249.586 34.4571C248.908 33.5627 248.403 32.4087 248.069 30.995C247.734 29.5813 247.66 28.339 247.896 27.0781C248.106 25.9122 248.672 24.9433 249.401 24.1203C250.131 23.2972 251.095 22.7407 252.293 22.4506C254.164 21.9331 255.735 22.1505 257.103 23.1281C258.376 24.0803 259.305 25.5517 259.842 27.7325C260.176 29.1462 260.225 30.4835 260.014 31.6494C259.778 32.9103 259.213 33.8792 258.388 34.6768C257.563 35.4743 256.599 36.0309 255.496 36.3465C254.178 36.7061 253.151 36.7366 252.131 36.3614ZM249.995 25.7054C249.569 26.9153 249.662 28.4682 250.154 30.4334C250.577 32.2782 251.342 33.6036 252.235 34.454C253.127 35.3043 254.268 35.6098 255.371 35.2943C256.569 35.0042 257.273 34.2762 257.725 32.9712C258.151 31.7612 258.083 30.1133 257.591 28.1481C257.169 26.3033 256.403 24.9779 255.511 24.1276C254.618 23.2773 253.573 22.9972 252.375 23.2873C251.221 23.7929 250.396 24.5904 249.995 25.7054Z" fill="black"/>
<path d="M266.058 28.4813C266.195 30.2497 266.054 31.5361 265.679 32.556C265.551 33.0311 265.234 33.4554 264.968 33.6896C264.701 33.9237 264.34 34.1324 263.909 34.2206C263.357 34.3784 262.856 34.3461 262.641 34.3902L262.212 32.9511C262.522 32.9324 262.953 32.8442 263.6 32.7119C263.815 32.6678 264.031 32.6237 264.177 32.4591C264.323 32.2945 264.469 32.1299 264.545 31.8448C265.194 30.1851 264.982 27.1745 264.056 22.6483L263.721 21.2347L261.522 21.4602L261.346 20.5981L271.907 18.4369L272.083 19.299L270.403 19.8674L272.74 31.2906L274.629 31.0837L274.806 31.9458L269.202 33.0925L269.025 32.2304L270.921 31.6179L268.584 20.1948L264.919 20.9446L265.298 22.5738C265.618 24.7987 265.895 26.808 266.058 28.4813Z" fill="black"/>
<path d="M275.67 18.8343L274.143 18.8325L273.992 17.8753L283.374 16.3148L284.137 19.1677L283.085 19.2932L282.231 17.5366L277.687 18.1523L278.53 23.3691L281.642 22.7771L281.644 21.2497L282.696 21.1243L283.388 25.384L282.336 25.5095L281.837 23.9498L278.75 24.4468L279.612 29.9742L284.785 28.9157L285.352 26.4193L286.517 26.6299L286.558 29.9001L276.34 31.542L276.163 30.6799L277.698 30.2761L275.67 18.8343Z" fill="black"/>
<path d="M291.08 16.4445L287.898 16.916L287.761 20.8515L286.493 21.0211L286.195 16.0521L297.769 14.6717L298.593 19.578L297.446 19.678L296.341 15.8171L293.115 16.073L294.565 27.7677L297.24 27.6695L297.296 28.6012L290.241 29.461L290.185 28.5293L292.556 28.0441L291.08 16.4445Z" fill="black"/>
<path d="M306.36 21.761L305.428 21.8169C305.162 22.0511 304.845 22.4753 304.597 23.02C304.323 23.6598 304.025 24.3946 303.77 25.345C303.42 26.2698 303.242 26.9351 303.02 27.3848C302.797 27.8345 302.626 28.0941 302.41 28.1382L299.9 28.3824L299.845 27.4507L300.517 27.2233C300.732 27.1792 300.878 27.0146 301.075 26.6599C301.272 26.3053 301.52 25.7605 301.818 25.0257C302.143 24.1959 302.536 23.4866 302.784 22.9418C303.127 22.4225 303.445 21.9983 303.806 21.7896C302.925 21.6555 302.216 21.2617 301.678 20.6082C301.14 19.9548 300.843 19.1623 300.787 18.2306C300.669 16.7728 301.069 15.6579 301.843 15.0504C302.737 14.3733 303.961 13.9882 305.609 13.9204C305.92 13.9018 306.446 13.8391 307.041 13.8968C307.662 13.8595 308.068 13.8663 308.379 13.8477L311.079 13.6545L311.135 14.5862L309.626 14.8949L310.531 26.3417L312.249 26.3945L312.304 27.3262L306.784 27.7822L306.728 26.8505L308.547 26.5231L308.154 21.5286L306.36 21.761ZM307.123 14.7335C306.527 14.6757 306.096 14.7639 305.595 14.7316C304.664 14.7876 303.871 15.0845 303.459 15.4833C302.926 15.9516 302.722 16.7119 302.848 17.7641C302.878 18.7908 303.295 19.5138 303.764 20.0467C304.353 20.5101 305.113 20.7138 306.045 20.6578C307.071 20.6274 307.718 20.4951 308.028 20.4764L307.623 14.7658L307.123 14.7335Z" fill="black"/>
<path d="M317.847 14.2458L314.621 14.5018L314.078 18.4305L312.835 18.505L312.968 13.4478L324.598 12.999L324.991 17.9935L323.87 17.9985L323.076 14.119L319.806 14.1594L320.203 25.9795L322.827 26.0714L322.883 27.0031L315.791 27.2418L315.735 26.3101L318.15 26.0405L317.847 14.2458Z" fill="black"/>
<path d="M333.682 26.2301C332.739 25.5698 332.036 24.7705 331.505 23.7114C330.974 22.6524 330.805 21.3847 330.781 19.9524C330.852 18.5455 331.183 17.3101 331.774 16.2461C332.365 15.182 333.19 14.3845 334.249 13.8534C335.308 13.3223 336.411 13.0067 337.723 13.0527C338.629 13.0918 339.82 13.2073 341.151 13.5638L341.721 13.7166L341.425 17.1005L340.208 17.08L339.818 14.7347C339.654 14.5887 339.394 14.4173 338.919 14.2899C338.444 14.1626 337.943 14.1303 337.347 14.0726C336.536 14.0589 335.864 14.2863 335.236 14.7292C334.608 15.172 334.119 15.8559 333.7 16.6603C333.351 17.5852 333.096 18.5355 333.05 19.8473C333.029 21.0641 333.155 22.1163 333.426 23.0039C333.698 23.8915 334.185 24.735 334.843 25.3188C335.502 25.9027 336.236 26.2014 337.143 26.2405C337.859 26.2287 338.264 26.2355 338.695 26.1473C339.032 26.0337 339.368 25.92 339.634 25.6858L340.428 23.8615L341.594 24.0721L341.097 26.6889C340.786 26.7075 340.45 26.8212 339.924 26.884C339.493 26.9722 339.037 27.1554 338.631 27.1486C338.2 27.2368 337.699 27.2045 337.078 27.2418C335.766 27.1959 334.626 26.8903 333.682 26.2301Z" fill="black"/>
<path d="M349.288 13.6051L349.249 14.5113L347.386 14.6232L346.703 24.0147L348.41 21.8239L354.242 15.6454L354.274 15.1448L352.633 14.8069L352.672 13.9007L357.774 14.249L357.735 15.1552L356.277 15.2739L355.509 26.8835L357.055 27.1959L357.016 28.1021L351.819 27.7283L351.858 26.8221L353.506 26.7543L354.12 17.2423L352.558 19.2685L346.606 25.5166L346.523 26.2073L348.284 26.4756L348.245 27.3818L342.954 26.9825L342.993 26.0763L344.546 25.9831L345.314 14.3735L343.863 14.0866L343.902 13.1804L349.288 13.6051Z" fill="black"/>
<path d="M369.567 15.4736L369.174 20.3594L367.888 20.2185L367.784 16.4221L363.666 15.8278L362.346 27.5951L365.559 28.1503L365.424 29.0311L358.112 28.1921L358.246 27.3114L360.274 27.3455L361.517 15.8632L359.617 15.3539L359.751 14.4732L369.567 15.4736Z" fill="black"/>
<path d="M372.714 17.0302L371.314 16.5532L371.448 15.6724L376.448 16.4009L376.313 17.2816L374.691 17.2543L373.963 22.2538L380.413 23.2692L381.141 18.2697L379.646 17.7673L379.781 16.8865L384.78 17.615L384.646 18.4958L383.119 18.4939L381.375 29.9439L382.8 30.3259L382.666 31.2066L377.667 30.4782L377.801 29.5974L379.328 29.5992L380.158 24.2196L373.708 23.2042L372.878 28.5838L374.493 29.0167L374.359 29.8975L369.264 29.1435L369.399 28.2628L370.926 28.2646L372.714 17.0302Z" fill="black"/>
<path d="M391.534 19.0173L393.556 19.4571L395.428 32.9964L396.543 33.397L396.409 34.2778L391.581 33.2897L391.715 32.4089L393.312 32.5313L392.979 29.5902L387.676 28.4748L386.273 31.0525L387.768 31.555L387.633 32.4357L383.281 31.5749L383.415 30.6942L384.632 30.7146L391.534 19.0173ZM392.127 22.1298L391.964 20.4565L391.246 21.9957L388.241 27.5058L392.879 28.443L392.127 22.1298Z" fill="black"/>
<path d="M402.225 30.438C401.602 32.0026 400.866 33.2312 400.161 33.9592C399.749 34.358 399.387 34.5667 399.051 34.6804C398.715 34.794 398.31 34.7872 397.835 34.6599C397.264 34.5071 396.789 34.3798 396.53 34.2084L396.722 32.7319C397.007 32.8083 397.482 32.9357 398.052 33.0884C398.242 33.1394 398.458 33.0953 398.673 33.0512C398.889 33.007 399.035 32.8424 399.301 32.6083C400.538 31.4119 401.803 28.5932 402.905 24.1012L403.287 22.6757L401.291 22.1409L401.546 21.1906L412.05 23.8016L411.796 24.7519L410.009 24.5787L407.194 35.8436L408.949 36.5174L408.719 37.3728L403.087 35.9654L403.316 35.1101L405.268 35.4293L408.082 24.1644L404.351 23.2663L403.918 24.8819C403.478 26.9031 402.848 28.8733 402.225 30.438Z" fill="black"/>
<path d="M418.297 31.2813C419.697 31.7583 420.736 32.444 421.318 33.313C421.9 34.1819 422 35.3292 421.574 36.5391C421.097 37.9392 420.341 38.8572 419.308 39.2933C418.154 39.7989 416.937 39.7784 415.511 39.3965C415.321 39.3455 415.131 39.2946 414.941 39.2437C414.751 39.1928 414.561 39.1418 414.301 38.9704C413.662 38.6971 412.996 38.5189 412.452 38.2711L410.006 37.5139L410.235 36.6586L411.782 36.971L415.166 25.8589L413.817 25.1919L414.046 24.3365L419.127 25.9017L418.898 26.757L417.042 26.4632L415.731 30.5938L418.297 31.2813ZM414.461 37.9946C414.651 38.0455 415.006 38.2424 415.386 38.3443C416.431 38.6244 417.243 38.638 417.965 38.2206C418.688 37.8032 419.177 37.1193 419.457 36.074C419.738 35.0286 419.726 34.3124 419.308 33.5894C418.96 32.9869 418.277 32.4981 417.257 32.123L415.451 31.6392L413.631 37.6704C414.011 37.7723 414.271 37.9437 414.461 37.9946ZM431.095 29.5158L430.866 30.3711L429.104 30.1028L425.719 41.2149L427.353 41.9584L427.124 42.8137L421.853 41.1976L422.082 40.3423L423.818 40.7056L427.203 29.5935L425.569 28.85L425.798 27.9947L431.095 29.5158Z" fill="black"/>
<path d="M438.783 33.5112L437.459 32.7491L437.784 31.9192L442.503 33.6931L442.179 34.5229L440.633 34.2105L438.859 38.9299L445.048 41.3013L446.822 36.5819L445.498 35.8198L445.822 34.9899L450.542 36.7638L450.218 37.5936L448.767 37.3067L444.621 48.2151L445.971 48.8822L445.646 49.712L440.927 47.9381L441.251 47.1083L442.772 47.5157L444.742 42.4417L438.553 40.0703L436.583 45.1444L438.001 45.932L437.677 46.7618L432.888 44.8675L433.212 44.0376L434.733 44.445L438.783 33.5112Z" fill="black"/>
<path d="M456.775 39.3507L458.695 40.1705L457.677 53.8522L458.621 54.5125L458.296 55.3423L453.748 53.3088L454.073 52.479L455.568 52.9815L455.951 50.0286L450.928 47.8678L449.031 50.0076L450.449 50.7952L450.125 51.625L446.027 49.8139L446.351 48.9841L447.492 49.2896L456.775 39.3507ZM456.721 42.5955L456.964 40.929L455.891 42.2713L451.779 46.9752L456.162 48.8627L456.721 42.5955Z" fill="black"/>
<path d="M470.487 47.0989L468.764 45.9244L469.184 45.12L473.56 47.4131L472.054 56.0748L471.512 58.4761L473.118 56.6655L479.286 50.3733L483.662 52.6664L483.243 53.4708L481.298 52.7459L477.248 63.6798L478.616 64.6574L478.197 65.4618L473.465 62.9718L473.885 62.1674L475.449 62.7904L478.564 54.9672L479.886 51.5528L477.919 53.5721L470.686 60.801L469.622 60.2103L471.116 50.8325L471.773 47.2398L469.836 50.2859L465.277 57.4166L466.835 58.4452L466.416 59.2495L462.135 56.9819L462.554 56.1775L464.023 56.775L470.487 47.0989Z" fill="black"/>
<path d="M489.856 56.1595L491.604 57.239L489.015 70.7033L489.958 71.3636L489.539 72.168L485.308 69.7102L485.728 68.9059L487.197 69.5034L487.841 66.7219L483.186 63.9468L481.029 65.9152L482.301 66.8674L481.882 67.6718L478.101 65.4364L478.521 64.632L479.636 65.0326L489.856 56.1595ZM489.421 59.3025L489.854 57.6869L488.617 58.8832L483.916 63.1238L488.051 65.556L489.421 59.3025Z" fill="black"/>
<path d="M498.126 62.5512L497.068 61.5549L497.583 60.776L499.66 62.1474C500.014 62.3443 500.439 62.6617 500.793 62.8586C501.408 63.2269 501.952 63.4747 502.472 63.8176C503.934 64.8207 504.897 65.7915 505.143 66.7741C505.389 67.7567 505.204 68.8276 504.518 69.8661C503.978 70.7401 503.325 71.278 502.507 71.6699C501.689 72.0619 500.852 72.1433 499.971 72.0091C499.09 71.875 498.166 71.5253 497.292 70.9855C496.937 70.7887 496.677 70.6172 496.348 70.3253C495.993 70.1284 495.829 69.9825 495.759 69.862L493.505 73.3323L495.531 74.8938L495.017 75.6727L489.894 72.3646L490.408 71.5857L491.852 72.2782L498.126 62.5512ZM497.806 70.2067C498.68 70.7464 499.44 70.9501 500.302 70.7737C501.164 70.5973 501.938 69.9898 502.675 68.7612C503.215 67.8872 503.444 67.0319 503.216 66.3599C502.989 65.6878 502.451 65.0344 501.508 64.3741C501.153 64.1772 500.798 63.9804 500.349 63.758C500.089 63.5866 499.899 63.5356 499.899 63.5356L496.273 69.083C496.603 69.375 497.027 69.6924 497.806 70.2067Z" fill="black"/>
<path d="M502.535 79.9279C502.099 78.8944 501.999 77.7471 502.184 76.6763C502.369 75.6055 502.915 74.3259 503.747 73.1228C504.553 72.0147 505.499 71.1475 506.558 70.6164C507.617 70.0854 508.789 69.8903 509.981 70.0058C511.172 70.1213 512.287 70.5219 513.3 71.3027C514.079 71.8169 514.971 72.6672 515.839 73.6126L516.332 74.0504L514.213 76.64L513.174 75.9543L514.165 73.7754C514.121 73.5598 513.887 73.2934 513.678 72.9319C513.47 72.5704 512.95 72.2275 512.431 71.8847C511.747 71.3959 511.082 71.2176 510.271 71.204C509.46 71.1903 508.667 71.4872 507.919 71.9997C507.17 72.5121 506.345 73.3097 505.685 74.2532C505.025 75.1967 504.555 76.1911 504.205 77.116C503.95 78.0664 503.816 78.9471 504.088 79.8347C504.359 80.7223 504.802 81.3502 505.581 81.8645C506.1 82.2074 506.524 82.5248 506.904 82.6266C507.285 82.7285 507.57 82.8049 507.88 82.7862L509.593 81.7172L510.485 82.5675L508.544 84.4919C508.284 84.3204 507.904 84.2186 507.454 83.9962C506.979 83.8689 506.624 83.672 506.149 83.5447C505.795 83.3478 505.345 83.1254 504.826 82.7826C503.838 81.9068 502.971 80.9615 502.535 79.9279Z" fill="black"/>
<path d="M529.794 83.8709L529.185 84.6244L527.627 83.5958L521.705 90.8706L524.368 90.0563L532.653 88.4057L532.971 87.9815L531.87 86.7697L532.479 86.0162L536.48 89.3293L535.871 90.0827L534.547 89.3206L527.14 98.3365L528.267 99.4533L527.683 100.112L523.682 96.7987L524.266 96.1402L525.659 97.0228L531.701 89.6784L529.254 90.4487L520.753 92.1433L520.315 92.6372L521.512 93.8744L520.928 94.5328L516.831 91.1943L517.415 90.5359L518.713 91.3931L526.12 82.3772L525.088 81.2859L525.698 80.5324L529.794 83.8709Z" fill="black"/>
<path d="M539.272 92.216C539.817 92.4639 540.146 92.7558 540.5 92.9527C540.855 93.1495 541.184 93.4415 541.444 93.6129C542.596 94.6346 543.343 95.6495 543.589 96.6322C543.835 97.6148 543.606 98.4701 542.901 99.1981C542.197 99.9261 541.474 100.343 540.568 100.304C539.731 100.386 538.876 100.157 538.097 99.6423C538.894 100.467 539.381 101.311 539.463 102.147C539.544 102.984 539.22 103.814 538.636 104.472C537.76 105.46 536.701 105.991 535.605 105.901C534.483 105.906 533.324 105.29 531.912 104.097C531.323 103.633 530.95 103.126 530.577 102.618C530.203 102.111 529.995 101.749 529.761 101.483C529.621 101.242 529.482 101.001 529.413 100.88L531.836 98.6778L532.495 99.2617L531.313 101.39C531.541 102.062 532.079 102.715 532.807 103.42C533.465 104.003 534.01 104.251 534.751 104.144C535.398 104.012 536.096 103.69 536.705 102.936C537.263 102.373 537.442 101.708 537.525 101.017C537.608 100.326 537.096 99.5777 536.273 98.8479L535.285 97.9721L535.989 97.2442L536.812 97.974C537.236 98.2914 537.661 98.6087 538.136 98.7361C538.611 98.8634 539.112 98.8957 539.663 98.7379C540.215 98.5801 540.602 98.2764 541.04 97.7826C541.623 97.1241 541.871 96.5794 541.739 95.9328C541.702 95.3117 541.328 94.8042 540.67 94.2204C540.271 93.808 539.917 93.6111 539.467 93.3887C539.112 93.1918 538.802 93.2105 538.586 93.2546L537.184 94.3049L536.266 93.5497L538.094 91.2893C538.398 91.6763 538.753 91.8732 539.272 92.216Z" fill="black"/>
<path d="M550.412 103.859L549.527 102.603L550.206 101.97L551.965 103.766C552.295 104.058 552.693 104.47 553.187 104.908C553.681 105.346 554.01 105.638 554.175 105.784C555.371 107.021 556.118 108.036 556.174 108.968C556.35 109.83 556.026 110.659 555.321 111.387C554.643 112.02 553.945 112.343 553.203 112.45C552.462 112.557 551.606 112.327 550.828 111.813C551.72 112.663 552.207 113.507 552.263 114.439C552.319 115.37 552.02 116.105 551.316 116.833C550.466 117.726 549.337 118.136 548.241 118.046C547.049 117.931 545.726 117.169 544.27 115.76C543.941 115.468 543.637 115.081 543.403 114.815C542.77 114.136 542.371 113.723 542.206 113.577L540.447 111.782L541.125 111.149L542.398 112.101L550.412 103.859ZM544.879 115.006C545.772 115.857 546.551 116.371 547.362 116.385C548.173 116.398 548.87 116.076 549.549 115.443C550.228 114.81 550.527 114.075 550.49 113.454C550.452 112.833 550.035 112.11 549.237 111.285C548.345 110.435 547.781 109.876 547.547 109.61L543.639 113.554C543.683 113.769 544.177 114.207 544.879 115.006ZM549.1 109.517L549.828 110.221C550.487 110.805 551.101 111.173 551.722 111.136C552.343 111.099 553.041 110.776 553.624 110.118C554.208 109.46 554.551 108.94 554.514 108.319C554.477 107.698 554.059 106.975 553.331 106.271C553.002 105.979 552.673 105.687 552.249 105.369L551.919 105.077L548.277 108.787C548.467 108.838 548.701 109.104 549.1 109.517Z" fill="black"/>
<path d="M562.713 114.59L564.143 116.094L557.76 128.134L558.411 129.124L557.732 129.757L554.428 126.121L555.107 125.488L556.26 126.51L557.758 123.958L554.056 119.91L551.386 121.13L552.367 122.411L551.688 123.044L548.688 119.796L549.367 119.163L550.285 119.918L562.713 114.59ZM561.233 117.453L562.141 115.965L560.6 116.774L554.899 119.423L558.133 122.938L561.233 117.453Z" fill="black"/>
<path d="M560.158 131.731C559.963 130.558 560.148 129.487 560.643 128.398C561.139 127.308 561.92 126.295 563.081 125.384C564.147 124.447 565.301 123.942 566.499 123.652C567.697 123.361 568.888 123.477 570.003 123.878C571.118 124.278 572.062 124.938 572.903 125.979C573.511 126.753 574.162 127.742 574.763 128.922L575.016 129.499L572.333 131.53L571.56 130.61L573.097 128.679C573.052 128.463 573.034 128.153 572.825 127.791C572.616 127.43 572.338 126.948 571.939 126.535C571.401 125.882 570.787 125.514 570.027 125.31C569.266 125.106 568.43 125.188 567.542 125.459C566.655 125.73 565.691 126.287 564.771 127.059C563.851 127.831 563.121 128.654 562.607 129.433C562.067 130.307 561.838 131.162 561.824 131.974C561.811 132.785 562.108 133.577 562.715 134.351C563.183 134.884 563.513 135.176 563.867 135.373C564.222 135.57 564.482 135.741 564.792 135.723L566.688 135.11L567.339 136.1L565.024 137.516C564.86 137.37 564.531 137.079 564.106 136.761C563.657 136.539 563.328 136.247 562.998 135.955C562.669 135.663 562.245 135.346 561.872 134.838C560.884 133.962 560.353 132.903 560.158 131.731Z" fill="black"/>
<path d="M579.181 138.661C580.328 138.561 581.304 138.721 582.229 139.071C583.154 139.42 583.977 140.15 584.584 140.924C585.331 141.939 585.697 142.852 585.823 143.904C585.853 144.931 585.694 145.907 585.128 146.876C584.563 147.845 583.808 148.763 582.673 149.579C581.512 150.49 580.237 151.065 579.039 151.355C577.841 151.646 576.744 151.555 575.63 151.155C574.515 150.754 573.761 150.145 573.084 149.251C572.337 148.236 571.901 147.202 571.776 146.15C571.65 145.098 571.905 144.147 572.375 143.153C572.94 142.184 573.696 141.266 574.736 140.424L572.939 138.007L568.588 141.323L569.422 142.769L568.674 143.282L565.592 139.196L566.341 138.684L567.468 139.801L576.678 132.796L575.913 131.471L576.687 130.863L579.699 134.828L578.925 135.435L577.798 134.318L573.834 137.33L575.631 139.747C577 139.197 578.103 138.882 579.181 138.661ZM580.801 140.216C579.559 140.291 578.069 140.91 576.401 142.194C574.973 143.34 573.977 144.397 573.551 145.607C573.125 146.817 573.251 147.869 573.997 148.884C574.769 149.804 575.669 150.249 576.936 150.079C578.179 150.004 579.599 149.265 581.242 148.075C582.669 146.93 583.666 145.873 584.092 144.663C584.518 143.453 584.392 142.4 583.715 141.506C583.038 140.612 582.044 140.141 580.801 140.216Z" fill="black"/>
<path d="M587.13 158.413C586.926 159.173 586.456 160.168 585.935 161.352C585.516 162.156 585.337 162.822 585.141 163.176C585.039 163.556 584.937 163.937 585.006 164.057L585.234 164.729L584.485 165.242L583.157 163.358C583.018 163.117 583.024 162.711 583.272 162.166C583.52 161.622 583.844 160.792 584.314 159.797C584.931 158.638 585.28 157.713 585.554 157.074C585.827 156.434 585.764 155.908 585.65 155.572L584.999 154.582L580.629 157.587L581.343 159.103L580.594 159.615L577.754 155.391L578.502 154.879L579.509 156.065L589.093 149.568L588.448 148.173L589.196 147.66L591.967 151.764L591.219 152.277L590.213 151.09L585.747 154.07L586.608 155.421L593.192 155.555L592.452 154.135L593.201 153.622L595.738 157.46L594.989 157.972L593.957 156.881L587.208 156.6C587.391 157.057 587.334 157.653 587.13 158.413Z" fill="black"/>
<path d="M586.758 167.786C586.822 166.784 587.102 165.739 587.858 164.821C588.518 163.877 589.463 163.01 590.668 162.315C591.899 161.524 593.122 161.139 594.269 161.039C595.512 160.964 596.583 161.149 597.577 161.619C598.571 162.089 599.394 162.819 600.021 163.904C600.995 165.591 601.303 167.099 600.775 168.69C600.273 170.185 599.105 171.501 597.272 172.64C596.042 173.431 594.818 173.816 593.55 173.986C592.308 174.06 591.237 173.875 590.148 173.379C589.153 172.909 588.356 172.084 587.704 171.095C587.009 169.89 586.788 168.812 586.758 167.786ZM596.296 162.6C595.079 162.58 593.519 163.078 591.807 164.147C590.215 165.147 589.123 166.179 588.602 167.363C587.986 168.522 588.112 169.574 588.738 170.659C589.389 171.648 590.358 172.213 591.575 172.234C592.887 172.28 594.352 171.756 596.064 170.687C597.656 169.687 598.747 168.655 599.268 167.471C599.764 166.381 599.759 165.26 599.133 164.175C598.481 163.186 597.607 162.646 596.296 162.6Z" fill="black"/>
<path d="M603.787 172.654L603.263 171.19L604.107 170.703L605.359 172.872C605.567 173.233 605.846 173.715 606.219 174.222C606.592 174.73 606.801 175.091 606.94 175.332C607.75 176.873 608.16 178.002 608.001 178.978C607.841 179.954 607.378 180.542 606.509 181.124C605.786 181.542 604.924 181.718 604.138 181.61C603.352 181.501 602.643 181.107 602.035 180.333C602.661 181.418 602.838 182.28 602.678 183.256C602.544 184.136 601.96 184.795 601.117 185.282C600.032 185.908 598.885 186.008 597.77 185.607C596.655 185.207 595.623 184.115 594.58 182.308C594.371 181.947 594.188 181.49 593.979 181.128C593.492 180.285 593.239 179.708 593.17 179.587L591.918 177.419L592.736 177.027L593.621 178.282L603.787 172.654ZM595.328 181.796C595.954 182.88 596.587 183.559 597.348 183.763C598.108 183.966 598.85 183.86 599.693 183.373C600.537 182.886 601 182.297 601.153 181.726C601.305 181.156 601.129 180.294 600.572 179.33C599.946 178.246 599.529 177.523 599.39 177.282L594.5 179.944C594.589 180.375 594.841 180.952 595.328 181.796ZM600.91 177.689L601.372 178.628C601.789 179.351 602.378 179.814 602.948 179.967C603.614 180.145 604.26 180.013 605.104 179.526C605.827 179.108 606.265 178.615 606.417 178.044C606.57 177.474 606.368 176.707 605.812 175.743C605.603 175.382 605.299 174.995 605.116 174.538L604.907 174.177L600.354 176.725C600.493 176.966 600.632 177.207 600.91 177.689Z" fill="black"/>
<path d="M618.346 198.149L617.528 198.541L616.668 197.19L606.249 202.241L606.817 203.921L605.999 204.313L603.717 199.525L604.535 199.133L605.395 200.484L615.909 195.459L613.279 190.069L602.74 195.189L603.308 196.869L602.49 197.261L600.183 192.569L601.001 192.177L601.791 193.407L612.21 188.356L611.711 186.796L612.529 186.404L618.346 198.149Z" fill="black"/>
<path d="M608.042 207.713C608.227 206.642 608.767 205.768 609.497 204.945C610.322 204.147 611.336 203.401 612.611 202.826C613.886 202.25 615.179 201.986 616.37 202.101C617.561 202.217 618.607 202.497 619.55 203.157C620.494 203.817 621.171 204.712 621.607 205.745C622.34 207.571 622.433 209.124 621.646 210.543C620.953 211.987 619.526 213.132 617.579 213.935C616.209 214.485 614.916 214.749 613.725 214.634C612.534 214.518 611.393 214.213 610.45 213.553C609.506 212.892 608.829 211.998 608.298 210.939C607.983 209.836 607.787 208.663 608.042 207.713ZM618.199 204.017C616.938 203.781 615.43 204.09 613.483 204.893C611.752 205.651 610.496 206.537 609.81 207.575C609.125 208.614 608.94 209.685 609.445 210.839C609.951 211.993 610.799 212.628 612.06 212.864C613.321 213.1 614.925 212.816 616.777 211.988C618.508 211.23 619.764 210.344 620.449 209.306C621.135 208.267 621.225 207.171 620.814 206.042C620.309 204.888 619.46 204.253 618.199 204.017Z" fill="black"/>
<path d="M617.953 220.146C616.228 220.499 614.866 220.643 613.89 220.484C613.415 220.356 612.939 220.229 612.705 219.963C612.376 219.671 612.142 219.404 611.959 218.948C611.706 218.371 611.618 217.94 611.599 217.629L612.994 216.984C613.013 217.295 613.196 217.751 613.449 218.328C613.493 218.544 613.657 218.69 613.822 218.836C613.987 218.982 614.177 219.033 614.462 219.109C616.198 219.473 619.215 218.855 623.419 217.231L624.789 216.682L624.227 214.596L625.14 214.229L628.956 224.317L628.043 224.684L627.234 223.143L616.353 227.255L616.801 229.005L615.914 229.276L613.905 223.849L614.792 223.578L615.646 225.334L626.526 221.221L625.225 217.715L623.64 218.309C621.547 219.276 619.677 219.794 617.953 220.146Z" fill="black"/>
<path d="M629.034 228.208L628.725 226.699L629.613 226.428L632.587 235.475L629.943 236.6L629.602 235.592L631.124 234.472L629.767 230.034L624.752 231.644L625.8 234.574L627.379 234.385L627.72 235.393L623.592 236.732L623.251 235.724L624.672 234.984L623.744 231.985L618.488 233.735L620.313 238.705L622.912 238.892L622.917 240.014L619.64 240.46L616.368 230.62L617.256 230.349L617.901 231.744L629.034 228.208Z" fill="black"/>
<path d="M633.82 243.038L632.797 240.014L628.804 240.471L628.514 239.273L633.376 238.233L636.575 249.48L631.776 251.046L631.46 249.943L635.069 248.261L634.287 245.098L622.945 248.272L623.474 250.859L622.586 251.13L620.649 244.296L621.537 244.024L622.358 246.282L633.82 243.038Z" fill="black"/>
<path d="M630.879 258.955L630.702 258.092C630.468 257.826 629.993 257.699 629.328 257.52C628.662 257.342 627.877 257.233 626.901 257.074C625.925 256.914 625.26 256.736 624.785 256.609C624.31 256.481 624.05 256.31 624.006 256.094L623.451 253.603L624.313 253.427L624.636 254.124C624.705 254.245 624.965 254.416 625.319 254.613C625.7 254.715 626.27 254.868 627.005 255.166C627.86 255.395 628.62 255.599 629.285 255.777C629.83 256.025 630.28 256.248 630.609 256.54C630.648 255.633 630.947 254.899 631.41 254.31C631.994 253.651 632.717 253.234 633.579 253.057C634.993 252.723 636.159 252.934 636.887 253.638C637.615 254.342 638.215 255.522 638.594 257.151C638.707 257.487 638.77 258.013 638.833 258.539C638.87 259.161 638.958 259.592 639.072 259.928L639.696 262.539L638.809 262.811L638.189 261.321L626.88 263.994L627.138 265.693L626.301 265.775L624.983 260.43L625.845 260.254L626.413 261.934L631.206 260.774L630.879 258.955ZM637.876 258.69C637.813 258.164 637.75 257.638 637.662 257.207C637.416 256.224 637.068 255.622 636.574 255.184C636.081 254.746 635.269 254.733 634.287 254.979C633.304 255.225 632.581 255.642 632.213 256.256C631.844 256.871 631.736 257.656 631.982 258.639C632.228 259.622 632.36 260.268 632.499 260.509L638.059 259.147L637.876 258.69Z" fill="black"/>
<path d="M640.062 269.156L639.375 266.018L635.363 266.166L635.168 264.993L640.119 264.384L642.361 275.782L637.474 276.917L637.279 275.744L641 274.399L640.529 271.217L628.941 273.408L629.255 276.039L628.393 276.215L627.007 269.223L627.869 269.047L628.57 271.374L640.062 269.156Z" fill="black"/>
<path d="M630.7 286.611C631.17 285.617 631.925 284.699 632.889 284.142C633.879 283.491 635.102 283.106 636.491 282.866C637.853 282.722 639.165 282.768 640.255 283.264C641.37 283.665 642.288 284.42 643.06 285.34C643.832 286.26 644.242 287.388 644.412 288.656C644.563 289.613 644.568 290.735 644.402 292.116L644.344 292.712L641.023 292.942L640.853 291.675L643.11 290.853C643.256 290.689 643.358 290.309 643.365 289.903C643.372 289.498 643.429 288.902 643.272 288.35C643.165 287.609 642.842 286.911 642.279 286.353C641.716 285.794 641.006 285.401 640.056 285.146C639.106 284.891 638.079 284.922 636.837 284.996C635.664 285.191 634.681 285.437 633.743 285.899C632.804 286.36 632.151 286.898 631.662 287.582C631.173 288.266 631.039 289.147 631.12 289.984C631.253 290.63 631.316 291.156 631.524 291.518C631.638 291.854 631.872 292.12 632.106 292.387L634.007 292.896L633.986 294.113L631.268 293.995C631.224 293.78 631.135 293.349 630.857 292.867C630.674 292.41 630.465 292.049 630.377 291.618C630.289 291.187 630.106 290.73 630.068 290.109C630.089 288.892 630.204 287.701 630.7 286.611Z" fill="black"/>
<path d="M645.603 300.179L644.671 300.235L644.249 298.391L634.856 299.235L637.243 300.588L644.323 305.337L644.849 305.274L644.902 303.556L645.834 303.501L646.297 308.616L645.365 308.671L645.031 307.258L633.438 308.328L633.411 309.95L632.479 310.006L632.041 304.796L632.973 304.74L633.351 306.369L642.84 305.55L640.522 304.318L633.372 299.449L632.751 299.486L632.699 301.203L631.767 301.259L631.329 296.049L632.261 295.993L632.57 297.502L644.163 296.432L644.26 294.93L645.191 294.874L645.603 300.179Z" fill="black"/>
<path d="M646.883 320.486L642.009 320.81L641.935 319.568L645.694 318.844L645.667 314.762L633.917 315.28L633.862 318.525L632.93 318.581L632.553 311.248L633.484 311.192L633.761 313.201L645.321 312.632L645.45 310.63L646.382 310.574L646.883 320.486Z" fill="black"/>
<path d="M645.802 323.762L645.994 322.285L646.9 322.324L646.863 327.407L645.956 327.368L645.768 325.79L640.781 325.777L640.741 332.387L645.729 332.4L645.921 330.923L646.827 330.962L646.814 335.95L645.908 335.911L645.694 334.428L634.071 334.471L633.879 335.947L632.973 335.908L632.985 330.921L633.892 330.96L634.08 332.538L639.473 332.557L639.513 325.947L634.12 325.928L633.902 327.499L632.996 327.46L632.939 322.352L633.845 322.391L634.059 323.874L645.802 323.762Z" fill="black"/>
<path d="M646.844 342.681L646.81 344.709L633.737 348.641L633.527 349.807L632.62 349.768L632.823 344.831L633.729 344.87L633.822 346.423L636.675 345.66L636.91 340.222L634.23 339.199L634.013 340.77L633.107 340.731L633.277 336.295L634.183 336.334L634.283 337.481L646.844 342.681ZM643.794 343.799L645.424 343.421L643.739 342.867L637.809 340.667L637.563 345.388L643.794 343.799Z" fill="black"/>
<path d="M637.21 355.072C635.499 354.614 634.289 354.188 633.441 353.553C633.016 353.235 632.687 352.943 632.573 352.607C632.365 352.246 632.372 351.84 632.378 351.435C632.436 350.839 632.443 350.433 632.614 350.174L634.142 350.176C634.065 350.461 634.033 350.961 633.975 351.557C633.924 351.747 633.968 351.963 634.108 352.204C634.152 352.419 634.316 352.565 634.576 352.737C635.918 353.809 638.985 354.529 643.465 354.915L644.967 355.012L645.337 352.87L646.243 352.909L645.299 363.656L644.393 363.617L644.35 361.874L632.817 360.821L632.428 362.652L631.522 362.613L632.049 356.847L632.955 356.886L632.946 358.819L644.479 359.872L644.782 356.082L643.09 355.935C640.802 355.729 638.851 355.41 637.21 355.072Z" fill="black"/>
<path d="M638.85 370.994C638.659 372.47 638.137 373.655 637.243 374.332C636.444 375.034 635.366 375.255 634.08 375.114C632.698 374.948 631.66 374.262 631.008 373.272C630.357 372.283 630.187 371.015 630.379 369.539C630.43 369.349 630.481 369.159 630.437 368.943C630.392 368.728 630.538 368.563 630.615 368.278C630.793 367.613 630.876 366.922 631.029 366.352L631.406 363.804L632.287 363.939L632.26 365.561L643.83 367.235L644.332 365.74L645.213 365.874L644.408 371.159L643.528 371.025L643.416 369.161L639.107 368.516L638.85 370.994ZM631.616 368.342C631.565 368.533 631.463 368.913 631.456 369.318C631.271 370.389 631.473 371.156 632.011 371.81C632.549 372.463 633.258 372.857 634.355 372.947C635.331 373.106 636.193 372.93 636.726 372.462C637.354 372.019 637.652 371.284 637.837 370.213L638.131 368.357L631.845 367.487C631.743 367.867 631.667 368.152 631.616 368.342ZM642.556 383.395L641.675 383.261L641.728 381.543L630.252 379.894L629.794 381.605L628.913 381.471L629.649 376.066L630.529 376.2L630.477 377.917L641.952 379.566L642.41 377.855L643.291 377.99L642.556 383.395Z" fill="black"/>
<path d="M639.745 391.605L640.317 390.23L641.172 390.46L640.038 395.452L639.183 395.223L639.305 393.626L634.407 392.518L632.986 398.961L637.884 400.07L638.456 398.695L639.311 398.924L638.203 403.822L637.347 403.593L637.444 402.091L626.078 399.656L625.601 401.056L624.745 400.827L625.854 395.93L626.709 396.159L626.612 397.661L631.916 398.776L633.337 392.332L628.033 391.217L627.505 392.807L626.65 392.578L627.784 387.585L628.639 387.814L628.543 389.316L639.745 391.605Z" fill="black"/>
<path d="M636.713 410.145L636.178 412.141L622.601 413.392L622.106 414.482L621.25 414.252L622.428 409.475L623.284 409.704L623.066 411.276L625.957 411.134L627.262 405.881L624.805 404.408L624.207 405.878L623.352 405.648L624.403 401.346L625.258 401.576L625.143 402.767L636.713 410.145ZM633.556 410.522L635.299 410.479L633.785 409.666L628.447 406.402L627.319 410.989L633.556 410.522Z" fill="black"/>
<path d="M631.187 425.064L632.102 423.17L632.932 423.494L631.374 428.169L622.571 427.949L620.163 427.814L622.265 429.09L629.433 434.27L627.875 438.945L627.045 438.621L627.485 436.6L615.972 434.33L615.28 435.774L614.45 435.45L616.135 430.299L616.965 430.624L616.627 432.265L624.877 434.169L628.444 434.922L626.133 433.284L617.882 427.202L618.282 426.087L627.757 426.08L631.503 426.167L628.139 424.654L620.392 421.254L619.623 422.984L618.794 422.659L620.326 418.079L621.156 418.403L620.844 419.949L631.187 425.064Z" fill="black"/>
<path d="M625.256 445.679L624.531 447.624L610.912 447.132L610.347 448.101L609.517 447.777L611.361 443.178L612.191 443.502L611.783 445.023L614.692 445.191L616.663 440.117L614.402 438.289L613.615 439.708L612.785 439.383L614.406 435.234L615.236 435.558L615.025 436.724L625.256 445.679ZM622.011 445.624L623.703 445.772L622.336 444.795L617.486 440.847L615.788 445.281L622.011 445.624Z" fill="black"/>
<path d="M620.188 454.71L621.019 453.507L621.849 453.831L620.832 456.105C620.61 456.555 620.508 456.935 620.311 457.29C620.038 457.93 619.885 458.5 619.637 459.045C618.894 460.679 618.113 461.692 617.175 462.154C616.262 462.52 615.235 462.55 613.955 462.004C613.056 461.559 612.372 461.07 611.86 460.322C611.347 459.573 611.145 458.806 611.089 457.875C611.033 456.943 611.288 455.993 611.733 455.093C611.93 454.739 612.006 454.453 612.203 454.099C612.4 453.744 612.451 453.554 612.571 453.484L608.828 451.87L607.621 454.093L606.791 453.769L609.295 448.227L610.124 448.551L609.622 450.046L620.188 454.71ZM612.632 455.538C612.187 456.437 612.174 457.249 612.445 458.136C612.717 459.024 613.47 459.633 614.75 460.18C615.744 460.65 616.555 460.663 617.132 460.411C617.83 460.088 618.319 459.404 618.789 458.41C618.986 458.055 619.088 457.675 619.215 457.2C619.291 456.915 619.342 456.725 619.368 456.63L613.255 453.973C613.179 454.258 612.931 454.803 612.632 455.538Z" fill="black"/>
<path d="M603.72 461.808C604.684 461.251 605.787 460.936 606.909 460.931C608.126 460.951 609.361 461.282 610.615 461.924C611.869 462.565 612.882 463.346 613.534 464.336C614.281 465.35 614.596 466.454 614.696 467.601C614.796 468.748 614.586 469.914 613.969 471.073C613.525 471.972 612.864 472.916 612.058 474.024L611.715 474.543L608.783 472.943L609.279 471.853L611.655 472.49C611.87 472.446 612.137 472.212 612.428 471.882C612.72 471.553 612.943 471.103 613.286 470.584C613.679 469.875 613.763 469.184 613.586 468.322C613.479 467.58 613.062 466.857 612.454 466.083C611.821 465.405 610.973 464.77 609.814 464.154C608.724 463.658 607.705 463.283 606.729 463.123C605.753 462.964 604.821 463.02 604.003 463.412C603.211 463.708 602.652 464.272 602.208 465.171C601.934 465.811 601.712 466.261 601.705 466.666C601.603 467.046 601.622 467.357 601.736 467.693L603.071 469.171L602.411 470.115L600.195 468.502C600.271 468.217 600.373 467.837 600.5 467.362C600.627 466.887 600.634 466.481 600.762 466.006C600.863 465.626 601.111 465.081 601.359 464.536C601.975 463.377 602.731 462.459 603.72 461.808Z" fill="black"/>
<path d="M604.093 489.307L603.314 488.793L604.083 487.064L595.976 482.345L597.152 484.799L600.096 492.82L600.545 493.042L601.618 491.7L602.397 492.214L599.793 496.609L599.014 496.095L599.586 494.72L589.542 488.871L588.59 490.144L587.785 489.725L590.415 485.235L591.219 485.654L590.501 487.193L598.677 492.032L597.45 489.768L594.532 481.652L593.918 481.284L592.82 482.722L592.015 482.302L594.67 477.717L595.474 478.136L594.877 479.606L604.921 485.455L605.848 484.277L606.627 484.791L604.093 489.307Z" fill="black"/>
<path d="M597.375 499.933C597.127 500.478 597 500.953 596.803 501.308C596.606 501.663 596.409 502.017 596.238 502.277C595.381 503.575 594.53 504.468 593.617 504.834C592.704 505.201 591.798 505.162 590.924 504.622C590.05 504.082 589.633 503.359 589.456 502.497C589.28 501.635 589.388 500.849 589.738 499.924C589.078 500.868 588.304 501.475 587.442 501.652C586.58 501.828 585.794 501.719 585.015 501.205C583.882 500.494 583.204 499.6 583.104 498.452C582.979 497.4 583.335 496.07 584.364 494.512C584.732 493.898 585.17 493.404 585.608 492.91C586.02 492.511 586.407 492.207 586.674 491.973C586.94 491.739 587.086 491.574 587.181 491.6L589.701 493.599L589.187 494.378L586.888 493.457C586.285 493.804 585.727 494.368 585.067 495.311C584.578 495.995 584.494 496.686 584.627 497.332C584.759 497.979 585.322 498.537 586.196 499.077C586.811 499.445 587.476 499.624 588.218 499.517C588.959 499.41 589.613 498.872 590.152 497.998L590.864 496.865L591.737 497.404L591.198 498.278C590.88 498.703 590.753 499.178 590.626 499.653C590.593 500.153 590.656 500.68 590.839 501.136C591.023 501.593 591.421 502.005 591.941 502.348C592.625 502.837 593.315 502.92 593.867 502.762C594.418 502.604 594.951 502.136 595.44 501.452C595.758 501.028 595.98 500.578 595.987 500.173C596.089 499.792 596.07 499.482 595.931 499.241L594.639 497.978L595.3 497.035L597.782 498.413C597.725 499.009 597.528 499.363 597.375 499.933Z" fill="black"/>
<path d="M587.587 512.895L588.704 511.768L589.483 512.283L588.016 514.334C587.724 514.663 587.502 515.113 587.134 515.728C586.791 516.247 586.594 516.601 586.422 516.861C585.445 518.229 584.499 519.096 583.612 519.367C582.724 519.639 581.844 519.505 581.09 518.895C580.406 518.407 579.868 517.753 579.692 516.891C579.49 516.124 579.599 515.338 579.923 514.508C579.263 515.452 578.489 516.059 577.601 516.331C576.739 516.507 575.858 516.373 575.105 515.764C574.092 514.983 573.535 514.019 573.435 512.872C573.335 511.725 573.838 510.23 575.082 508.628C575.374 508.298 575.57 507.944 575.862 507.615C576.472 506.861 576.815 506.342 576.935 506.272L578.401 504.221L579.18 504.735L578.418 506.059L587.587 512.895ZM575.67 509.091C574.89 510.104 574.635 511.054 574.647 511.771C574.659 512.487 575.171 513.235 575.95 513.749C576.704 514.359 577.464 514.562 578.11 514.43C578.757 514.298 579.41 513.76 580.045 512.911C580.826 511.898 581.22 511.189 581.391 510.929L576.864 507.679C576.743 507.749 576.305 508.243 575.67 509.091ZM581.725 512.343L581.091 513.192C580.602 513.875 580.423 514.541 580.556 515.187C580.688 515.834 581.131 516.462 581.815 516.951C582.499 517.439 583.164 517.618 583.785 517.58C584.337 517.423 584.965 516.98 585.625 516.036C585.917 515.707 586.139 515.257 586.336 514.903L586.533 514.548L582.36 511.495C582.309 511.685 582.043 511.919 581.725 512.343Z" fill="black"/>
<path d="M578.812 526.637L577.568 528.239L564.613 523.749L563.788 524.547L563.035 523.937L566.107 520.075L566.86 520.684L566.003 521.983L568.683 523.006L572.072 518.72L570.465 516.354L569.348 517.481L568.595 516.871L571.35 513.433L572.103 514.042L571.512 515.107L578.812 526.637ZM575.727 525.607L577.292 526.23L576.241 524.828L572.749 519.614L569.823 523.312L575.727 525.607Z" fill="black"/>
<path d="M561.459 526.775C562.562 526.459 563.684 526.454 564.824 526.76C565.965 527.066 567.098 527.777 568.181 528.678C569.264 529.579 570.01 530.594 570.421 531.723C570.831 532.851 570.931 533.998 570.721 535.164C570.51 536.33 569.92 537.394 569.164 538.312C568.555 539.066 567.635 539.838 566.595 540.679L566.087 541.053L563.669 538.673L564.52 537.781L566.648 538.962C566.863 538.918 567.199 538.804 567.586 538.5C567.948 538.292 568.36 537.893 568.703 537.374C569.261 536.81 569.56 536.076 569.574 535.264C569.682 534.479 569.48 533.711 568.993 532.868C568.507 532.025 567.924 531.156 566.911 530.375C565.993 529.62 565.145 528.985 564.22 528.635C563.295 528.285 562.414 528.151 561.578 528.233C560.741 528.314 560.018 528.732 559.409 529.485C558.971 529.979 558.653 530.403 558.552 530.783C558.355 531.138 558.373 531.448 558.297 531.733L559.15 533.49L558.231 534.262L556.547 532.181C556.693 532.017 556.89 531.662 557.138 531.117C557.36 530.668 557.557 530.313 557.754 529.958C557.951 529.604 558.268 529.179 558.706 528.686C559.341 527.837 560.356 527.09 561.459 526.775Z" fill="black"/>
<path d="M557.544 546.708C557.859 547.811 557.89 548.838 557.635 549.788C557.381 550.739 556.936 551.638 556.137 552.341C555.286 553.233 554.322 553.79 553.34 554.036C552.357 554.282 551.261 554.192 550.241 553.817C549.221 553.442 548.182 552.756 547.195 551.88C546.138 550.884 545.321 549.748 544.936 548.525C544.526 547.396 544.331 546.223 544.611 545.178C544.796 544.107 545.361 543.138 546.091 542.315C546.941 541.423 547.905 540.866 548.913 540.525C549.896 540.279 550.992 540.369 552.012 540.744C553.032 541.119 554.07 541.805 555.058 542.681L557.171 540.497L553.202 536.683L551.921 537.664L551.288 536.985L554.835 533.25L555.493 533.834L554.541 535.107L562.878 543.147L564.039 542.235L564.672 542.914L561.15 546.554L560.517 545.875L561.469 544.603L557.829 541.081L555.716 543.265C556.697 544.546 557.228 545.605 557.544 546.708ZM556.369 548.431C556.079 547.233 555.219 545.882 553.763 544.473C552.472 543.21 551.148 542.448 549.887 542.212C548.626 541.976 547.523 542.292 546.673 543.184C545.822 544.077 545.568 545.027 545.858 546.225C546.148 547.423 547.008 548.774 548.559 550.209C549.851 551.471 551.079 552.208 552.315 552.539C553.55 552.87 554.558 552.529 555.409 551.636C556.259 550.744 556.539 549.698 556.369 548.431Z" fill="black"/>
<path d="M539.272 557.498C538.487 557.39 537.441 557.11 536.206 556.779C535.35 556.549 534.685 556.371 534.21 556.244C533.83 556.142 533.519 556.161 533.278 556.3L532.581 556.622L531.948 555.943L533.598 554.348C533.839 554.209 534.175 554.095 534.84 554.274C535.41 554.426 536.265 554.656 537.406 554.961C538.616 555.387 539.566 555.642 540.352 555.75C541.017 555.929 541.543 555.866 541.835 555.537L542.66 554.739L539.027 550.812L537.65 551.767L537.017 551.088L540.799 547.62L541.432 548.299L540.41 549.451L548.309 557.985L549.565 557.099L550.198 557.778L546.537 561.177L545.904 560.498L546.856 559.225L543.223 555.298L542.011 556.399L542.903 562.953L544.159 562.067L544.792 562.746L541.398 565.911L540.765 565.232L541.692 564.054L540.946 557.336C540.774 557.595 540.058 557.607 539.272 557.498Z" fill="black"/>
<path d="M529.993 558.679C531.045 558.553 532.116 558.738 533.085 559.303C534.174 559.799 535.067 560.649 536.003 561.715C536.94 562.781 537.541 563.961 537.831 565.159C538.121 566.357 538.126 567.479 537.751 568.499C537.376 569.518 536.81 570.487 535.891 571.26C534.438 572.5 532.878 572.999 531.307 572.781C529.735 572.564 528.272 571.561 526.772 569.937C525.836 568.871 525.235 567.691 524.945 566.493C524.655 565.295 524.65 564.173 525.05 563.058C525.356 561.918 525.991 561.07 526.911 560.297C527.907 559.24 528.94 558.804 529.993 558.679ZM536.554 567.261C536.385 565.994 535.645 564.573 534.31 563.095C533.069 561.642 531.866 560.81 530.656 560.384C529.446 559.958 528.368 560.179 527.449 560.951C526.529 561.723 526.154 562.743 526.323 564.011C526.493 565.278 527.232 566.699 528.542 568.272C529.783 569.725 530.986 570.557 532.196 570.983C533.432 571.314 534.509 571.093 535.429 570.321C536.349 569.549 536.724 568.529 536.554 567.261Z" fill="black"/>
<path d="M527.861 576.136L529.187 575.371L529.794 576.145L527.86 577.664C527.498 577.872 527.086 578.271 526.648 578.765C526.235 579.164 525.848 579.468 525.607 579.607C524.206 580.657 523.147 581.188 522.215 581.244C521.283 581.3 520.479 580.881 519.871 580.107C519.333 579.453 519.036 578.661 519.05 577.85C519.064 577.038 519.363 576.304 519.946 575.645C519.026 576.417 518.113 576.784 517.207 576.745C516.301 576.706 515.497 576.286 514.889 575.512C514.142 574.498 513.827 573.394 514.038 572.229C514.248 571.063 515.2 569.79 516.748 568.575C517.135 568.271 517.497 568.063 517.763 567.828C518.537 567.221 519.019 566.943 519.165 566.778L521.1 565.259L521.612 566.008L520.495 567.135L527.861 576.136ZM517.476 569.279C516.461 570.026 515.947 570.805 515.838 571.591C515.729 572.376 515.931 573.143 516.539 573.917C517.146 574.691 517.761 575.06 518.451 575.143C519.142 575.226 519.84 574.904 520.734 574.227C521.749 573.48 522.402 572.942 522.574 572.682L519.163 568.305C518.783 568.204 518.275 568.577 517.476 569.279ZM522.407 574.064L521.633 574.671C520.98 575.209 520.612 575.824 520.528 576.514C520.445 577.205 520.673 577.877 521.305 578.556C521.843 579.209 522.458 579.578 523.053 579.635C523.649 579.693 524.347 579.371 525.241 578.694C525.628 578.39 525.92 578.061 526.307 577.757L526.573 577.523L523.397 573.412C523.061 573.526 522.794 573.76 522.407 574.064Z" fill="black"/>
<g style="mix-blend-mode:overlay">
<circle cx="113.201" cy="108.151" r="2" fill="black"/>
</g>
<g style="mix-blend-mode:overlay">
<circle cx="517.7" cy="82.5212" r="2" fill="black"/>
</g>
</g>
</g>
<defs>
<clipPath id="clip0_2_2066">
<rect width="660" height="660" fill="white"/>
</clipPath>
</defs>
</svg>
