<svg width="244" height="32" viewBox="0 0 244 32" fill="none" xmlns="http://www.w3.org/2000/svg">
<path d="M20.8163 29.9437H20.2534C20.2534 29.9398 20.2522 29.9359 20.2511 29.9321L20.2503 29.9293L20.2495 29.9261L20.2341 29.8573C20.2242 29.812 20.2135 29.7671 20.2025 29.7226C20.1978 29.7017 20.1927 29.6808 20.1876 29.66C20.173 29.6012 20.1575 29.5422 20.1417 29.4834L20.137 29.4666C20.1196 29.4029 20.1014 29.3396 20.0825 29.2765L20.0635 29.2155C20.058 29.1969 20.0523 29.1784 20.0466 29.16C20.039 29.1355 20.0312 29.1103 20.0241 29.086C20.0166 29.0624 20.0087 29.0392 20.0012 29.016C19.9874 28.9744 19.9731 28.9329 19.9585 28.8917L19.9432 28.8481L19.9356 28.8266C19.9172 28.775 19.8983 28.7237 19.8788 28.6728C19.8745 28.6619 19.8709 28.6515 19.8666 28.6406C19.8437 28.5807 19.8196 28.5212 19.7951 28.4617C19.7864 28.44 19.7773 28.4187 19.7683 28.3974C19.7593 28.3771 19.7504 28.3558 19.7413 28.3344C19.7337 28.3161 19.7259 28.2977 19.7181 28.2798L19.6862 28.2076C19.6696 28.1702 19.6526 28.1328 19.6352 28.0953C19.6246 28.0721 19.6135 28.0486 19.6025 28.0254L19.5931 28.0052C19.5762 27.969 19.5595 27.933 19.5405 27.8974C19.5359 27.8885 19.5316 27.8795 19.5272 27.8705L19.5164 27.8483C19.4884 27.7926 19.4596 27.7361 19.4304 27.6822L19.3909 27.6122L19.3352 27.5108L19.2918 27.4359C19.2736 27.4045 19.2555 27.373 19.2369 27.3416C19.2223 27.3162 19.2073 27.2907 19.1923 27.2668L19.1769 27.241C19.162 27.2158 19.1471 27.1909 19.1304 27.1657L19.0735 27.0744L19.0609 27.0547C19.0383 27.0194 19.0154 26.9836 18.9922 26.9487C18.9748 26.9225 18.9575 26.8966 18.9397 26.8708C18.9316 26.859 18.9231 26.8465 18.9146 26.8337C18.9044 26.8186 18.8939 26.8029 18.8836 26.7881C18.877 26.7785 18.8701 26.7689 18.8632 26.7593C18.8506 26.7416 18.838 26.724 18.8268 26.7065C18.8094 26.6796 18.7905 26.6553 18.7719 26.6317C18.7608 26.6175 18.7488 26.6005 18.7366 26.5833C18.7285 26.5719 18.7203 26.5602 18.7123 26.5493L18.6567 26.4745C18.6329 26.4445 18.6103 26.4145 18.5876 26.3845C18.5726 26.3647 18.5575 26.3447 18.5422 26.3248L18.4881 26.2563C18.4713 26.2351 18.454 26.2142 18.4369 26.1933L18.4182 26.1706L18.3661 26.1077C18.3495 26.0878 18.3326 26.0681 18.3157 26.0482L18.2931 26.0217L18.2418 25.9625L18.1652 25.8757L18.1198 25.8256C18.0254 25.7219 17.9287 25.6197 17.8297 25.5202L17.7862 25.4764L17.6954 25.3877L17.6508 25.345C17.6192 25.3147 17.5877 25.2848 17.5557 25.2552L17.5229 25.2253C17.4112 25.1224 17.2963 25.0221 17.1795 24.9259L17.1475 24.8993C17.1115 24.8694 17.0752 24.8398 17.0386 24.8106L17.0023 24.7814C16.9799 24.7645 16.9588 24.7477 16.9376 24.7309C16.9214 24.718 16.9052 24.7052 16.8886 24.6923L16.8692 24.6777C16.7401 24.5789 16.6079 24.4828 16.4745 24.3903L16.4559 24.3772C16.4137 24.3484 16.3714 24.32 16.3288 24.2919L16.3008 24.2736C16.2575 24.2449 16.2139 24.2169 16.1702 24.1889L16.1622 24.1841C16.017 24.0921 15.8689 24.0039 15.7181 23.9195L15.7122 23.9158C15.6645 23.8892 15.6167 23.8634 15.5689 23.8376L15.548 23.8263C15.2938 23.6904 15.0327 23.5656 14.7648 23.4521L14.7482 23.445C14.6776 23.415 14.6065 23.3862 14.5347 23.3578H15.9475C16.1776 23.3578 16.3643 23.1067 16.3643 22.7964C16.3643 22.4862 16.1776 22.2351 15.9475 22.2351H15.5267C15.5527 22.1722 15.5816 22.1011 15.6127 22.021C16.0106 21.786 16.7109 21.2852 17.4057 20.3653L17.4112 20.3582C17.4639 20.2894 17.5156 20.2181 17.5664 20.1445L17.5766 20.1299C17.6271 20.0577 17.6777 19.9832 17.7274 19.9054L17.7408 19.8848L17.8119 19.7725C17.8119 19.7725 17.8119 19.7713 17.8126 19.7699C17.8128 19.7695 17.8131 19.7691 17.8135 19.7686C17.8138 19.7683 17.8142 19.768 17.8147 19.7677C17.8342 19.7378 17.8534 19.7056 17.8726 19.6735L17.8873 19.649L17.9027 19.6232C17.9232 19.5888 17.9441 19.5536 17.9643 19.5181C17.9682 19.5117 17.9722 19.5053 17.9757 19.4986C17.999 19.4582 18.0223 19.417 18.0452 19.3755L18.061 19.3466C18.0799 19.3122 18.0985 19.2774 18.117 19.2422L18.1258 19.2264L18.1332 19.2123C18.1553 19.17 18.1774 19.1273 18.1995 19.0839L18.2149 19.0536L18.2181 19.0472C18.2345 19.0141 18.2511 18.9803 18.2674 18.9466L18.2864 18.9092C18.3077 18.865 18.3286 18.8201 18.3495 18.7748L18.3626 18.746C18.3799 18.7086 18.3969 18.6711 18.4139 18.6337L18.434 18.5888C18.4537 18.5435 18.4735 18.4979 18.4924 18.4518C18.496 18.4436 18.4995 18.435 18.5027 18.4268C18.5205 18.3845 18.5378 18.3414 18.5552 18.298L18.5749 18.2486C18.5911 18.2074 18.6073 18.1659 18.6231 18.1244L18.6349 18.0929C18.6488 18.0561 18.6624 18.0187 18.6759 17.9814L18.6898 17.9432L18.7088 17.8901C18.7229 17.8507 18.7366 17.8106 18.7503 17.7705C18.7554 17.7555 18.7609 17.7396 18.7656 17.7247C18.783 17.673 18.8003 17.6203 18.8173 17.5675C18.8228 17.5492 18.8288 17.5301 18.8343 17.5128L18.8738 17.3897C18.8789 17.3718 18.8844 17.3523 18.8896 17.3362C18.9057 17.2819 18.9219 17.2266 18.9373 17.1708C18.9424 17.1532 18.9472 17.1352 18.9519 17.1173C18.9638 17.0742 18.9756 17.0312 18.9871 16.9874C18.9922 16.9676 18.9973 16.9477 19.0028 16.9279C19.0175 16.8703 19.0321 16.8123 19.0463 16.7535L19.0581 16.7045C19.0692 16.6577 19.0802 16.6105 19.0909 16.563L19.1051 16.4994C19.1185 16.4384 19.1319 16.3774 19.1446 16.3153C19.1473 16.3033 19.1497 16.2909 19.1521 16.2778C19.1631 16.2243 19.1738 16.1701 19.184 16.1158C19.1884 16.0937 19.1923 16.0716 19.1967 16.0496C19.2049 16.0051 19.2128 15.9602 19.2207 15.9155L19.229 15.8682L19.233 15.8463C19.244 15.7805 19.2548 15.7141 19.2654 15.6472C19.2689 15.6248 19.2725 15.6023 19.2756 15.5795C19.2839 15.5252 19.2918 15.4706 19.2997 15.4152L19.3068 15.3643C19.3163 15.2955 19.3254 15.2262 19.334 15.1559L19.3379 15.1238L19.3419 15.0892C19.3488 15.0334 19.3551 14.9772 19.3609 14.9208L19.3616 14.9151C19.3637 14.8969 19.3658 14.8788 19.3676 14.8606C19.3752 14.7882 19.3823 14.7153 19.3889 14.6417C19.3889 14.6285 19.3904 14.6154 19.3918 14.6022L19.3926 14.5952L19.394 14.5795C19.3992 14.5204 19.4043 14.4609 19.4086 14.401C19.4086 14.3868 19.4101 14.3726 19.4116 14.3584C19.4124 14.3505 19.4132 14.3427 19.4138 14.3348C19.4193 14.2584 19.4244 14.1816 19.4292 14.1042C19.4292 14.0867 19.4292 14.0668 19.4319 14.0511C19.4355 13.9867 19.439 13.922 19.4418 13.8569C19.4418 13.8333 19.4418 13.8097 19.445 13.7861C19.4481 13.7057 19.4513 13.6248 19.4537 13.5429V13.5084C19.4558 13.4356 19.4573 13.362 19.4584 13.2876V12.6181C19.4584 12.5639 19.4567 12.5078 19.4551 12.4514L19.4533 12.3868V12.3445C19.4505 12.2562 19.4471 12.1668 19.4436 12.077L19.4434 12.0725C19.4434 12.0583 19.4425 12.044 19.4417 12.0297C19.4411 12.0202 19.4405 12.0108 19.4402 12.0014C19.4368 11.9245 19.4329 11.8472 19.4284 11.7693C19.4284 11.7502 19.4284 11.7319 19.4252 11.7113C19.4197 11.6178 19.4136 11.5235 19.4071 11.4284L19.4023 11.3622L19.4017 11.3534C19.396 11.2772 19.3902 11.1999 19.3838 11.1226C19.3838 11.1066 19.3821 11.0905 19.3804 11.0745L19.3783 11.053C19.37 10.9557 19.3609 10.8573 19.3514 10.7585C19.3514 10.7469 19.3499 10.7353 19.3484 10.7236C19.3474 10.7165 19.3465 10.7092 19.3459 10.702C19.3384 10.6259 19.3303 10.5493 19.3221 10.472L19.3194 10.4471C19.3167 10.4213 19.3139 10.3959 19.3108 10.37C19.2997 10.2682 19.2879 10.1661 19.2752 10.0624C19.2752 10.054 19.2737 10.0456 19.2722 10.0375C19.2714 10.0332 19.2706 10.0291 19.2701 10.025C19.2588 9.93217 19.2468 9.83886 19.2342 9.74505L19.2227 9.66197C19.208 9.55569 19.1929 9.44852 19.1773 9.34049C17.5983 -1.31572 6.40876 0.413656 6.40876 0.413656L6.76719 2.70328L0 9.48083L0.295667 12.0979L2.85917 13.5949C2.97345 13.3195 3.12017 13.0573 3.29655 12.8131C4.95055 11.0044 8.15947 9.5845 9.07805 9.28997C9.26201 9.23121 9.36662 9.20165 9.36662 9.20165C4.97266 14.593 5.47241 20.7695 5.66821 22.2418C5.46452 22.2792 5.30701 22.5124 5.30701 22.7968C5.30701 23.1067 5.49373 23.3582 5.72387 23.3582H7.13668C4.78699 24.2906 2.92185 26.0665 1.94848 28.2982C1.94734 28.3012 1.94602 28.3042 1.94454 28.3072C1.87269 28.4728 1.80585 28.6409 1.74401 28.8113L1.74408 28.8135L1.74401 28.8165C1.72743 28.8629 1.71124 28.9093 1.69545 28.9561C1.68957 28.9728 1.68357 28.9899 1.67808 29.007C1.66387 29.0489 1.65071 29.0912 1.63861 29.1339C1.63281 29.1516 1.62727 29.1695 1.62178 29.1874L1.61808 29.1994C1.60545 29.2394 1.59321 29.2798 1.58137 29.3202L1.56005 29.3951C1.549 29.4325 1.53795 29.4726 1.52768 29.5115C1.52018 29.5392 1.51308 29.5665 1.50597 29.5942L1.49641 29.6316C1.49001 29.6566 1.4836 29.6815 1.47755 29.7065C1.46847 29.7439 1.45978 29.7813 1.4511 29.821C1.44693 29.84 1.44221 29.8607 1.43738 29.8818C1.43218 29.9044 1.42678 29.928 1.42189 29.9505H0.85858C0.750258 29.9482 0.642551 29.9665 0.541778 30.0042C0.441006 30.0419 0.3492 30.0984 0.271747 30.1702C0.194294 30.242 0.13275 30.3278 0.0907365 30.4225C0.0487226 30.5172 0.0270812 30.6189 0.0270812 30.7216C0.0270812 30.8243 0.0487226 30.926 0.0907365 31.0207C0.13275 31.1154 0.194294 31.2011 0.271747 31.273C0.3492 31.3448 0.441006 31.4012 0.541778 31.439C0.642551 31.4767 0.750258 31.495 0.85858 31.4927H20.8234C20.9318 31.495 21.0395 31.4767 21.1402 31.439C21.241 31.4012 21.3328 31.3448 21.4103 31.273C21.4877 31.2011 21.5493 31.1154 21.5913 31.0207C21.6333 30.926 21.6549 30.8243 21.6549 30.7216C21.6549 30.6189 21.6333 30.5172 21.5913 30.4225C21.5493 30.3278 21.4877 30.242 21.4103 30.1702C21.3328 30.0984 21.241 30.0419 21.1402 30.0042C21.0395 29.9665 20.9318 29.9482 20.8234 29.9505L20.8163 29.9437Z" fill="#595653"/>
<path d="M44.2035 29.9437H43.6406C43.6406 29.9398 43.6394 29.9359 43.6383 29.9321L43.6374 29.9289L43.6367 29.9261L43.6213 29.8573C43.6114 29.812 43.6007 29.7671 43.5897 29.7226C43.585 29.7016 43.5798 29.6806 43.5747 29.6597C43.5601 29.6009 43.5447 29.5422 43.5289 29.4834L43.5242 29.4666C43.5068 29.4029 43.4886 29.3396 43.4697 29.2765L43.4507 29.2155C43.4451 29.1967 43.4393 29.1779 43.4335 29.1593C43.426 29.1348 43.4184 29.1104 43.4113 29.086C43.4071 29.0727 43.4027 29.0596 43.3984 29.0465L43.3884 29.016C43.3746 28.9744 43.3603 28.9329 43.3457 28.8917L43.3348 28.8605L43.3228 28.8266C43.3044 28.775 43.2855 28.7237 43.266 28.6728L43.26 28.6571L43.2578 28.6511L43.2538 28.6406C43.2309 28.5807 43.2068 28.5212 43.1823 28.4617C43.1736 28.44 43.1646 28.4187 43.1555 28.3974C43.1465 28.3772 43.1376 28.3559 43.1286 28.3344C43.1209 28.3161 43.1132 28.2978 43.1053 28.2798L43.0734 28.2076C43.0568 28.1702 43.0398 28.1328 43.0224 28.0953C43.0118 28.0721 43.0007 28.0486 42.9897 28.0254L42.9802 28.0051C42.9634 27.9689 42.9467 27.933 42.9277 27.8974C42.9232 27.8886 42.9189 27.8796 42.9145 27.8707L42.9036 27.8483C42.8756 27.7926 42.8468 27.7361 42.8176 27.6822L42.7781 27.6122L42.7224 27.5108L42.6785 27.435C42.6605 27.4039 42.6425 27.3728 42.6241 27.3416C42.6095 27.3162 42.5945 27.2907 42.5795 27.2668L42.5641 27.241C42.5567 27.2285 42.5493 27.2161 42.5417 27.2037C42.5373 27.1964 42.5328 27.1892 42.5282 27.1819C42.5247 27.1765 42.5212 27.1711 42.5176 27.1657L42.4607 27.0744L42.4465 27.0523C42.4244 27.0176 42.4022 26.9829 42.3794 26.9487L42.3521 26.9078L42.3269 26.8708C42.3188 26.859 42.3104 26.8465 42.3018 26.8337L42.2911 26.8178L42.2708 26.7881C42.2641 26.7785 42.2573 26.7688 42.2504 26.7592C42.2378 26.7415 42.2252 26.724 42.214 26.7065C42.1966 26.6796 42.1777 26.6553 42.1591 26.6317C42.1527 26.6235 42.146 26.6145 42.1392 26.6049L42.1238 26.5833L42.1138 26.5691L42.0995 26.5493L42.0439 26.4745C42.0201 26.4445 41.9975 26.4146 41.9748 26.3846C41.9599 26.3647 41.9448 26.3447 41.9294 26.3248L41.8753 26.2563C41.8585 26.2352 41.8413 26.2142 41.8241 26.1933L41.8054 26.1706L41.7533 26.1077C41.7398 26.0916 41.7262 26.0755 41.7125 26.0594L41.6803 26.0217L41.629 25.9625L41.5524 25.8757L41.507 25.8256C41.4127 25.7219 41.3159 25.6197 41.2169 25.5202L41.1734 25.4764L41.0826 25.3877L41.038 25.345C41.0065 25.3147 40.9749 25.2848 40.9429 25.2552L40.9101 25.2253C40.7984 25.1224 40.6836 25.0221 40.5667 24.9259L40.5347 24.8993C40.4987 24.8694 40.4624 24.8398 40.4258 24.8106L40.3895 24.7814C40.3671 24.7645 40.346 24.7477 40.3249 24.7309L40.2969 24.7088L40.2758 24.6923L40.2564 24.6777C40.1273 24.5789 39.9951 24.4828 39.8617 24.3903L39.8431 24.3772C39.8009 24.3484 39.7587 24.32 39.716 24.2919L39.688 24.2736C39.6446 24.2447 39.6008 24.2167 39.5569 24.1886L39.5494 24.1841C39.4042 24.0921 39.2561 24.0039 39.1053 23.9195L39.0994 23.9158C39.0517 23.8892 39.0039 23.8634 38.9562 23.8376L38.9352 23.8263C38.681 23.6904 38.4199 23.5656 38.152 23.4521L38.1354 23.445C38.0648 23.415 37.9937 23.3862 37.9219 23.3578H39.3347C39.5648 23.3578 39.7515 23.1067 39.7515 22.7964C39.7515 22.4862 39.5648 22.2351 39.3347 22.2351H38.9139C38.9399 22.1722 38.9688 22.1011 38.9999 22.021C39.3979 21.786 40.0981 21.2852 40.7929 20.3653L40.7984 20.3582C40.8511 20.2894 40.9028 20.2181 40.9536 20.1445L40.9638 20.1299C41.0144 20.0577 41.0649 19.9832 41.1146 19.9054L41.128 19.8848L41.1991 19.7725C41.1991 19.7725 41.1991 19.7695 41.2019 19.7677C41.2214 19.7378 41.2406 19.7056 41.2598 19.6735L41.2745 19.649L41.2899 19.6232C41.3104 19.5888 41.3313 19.5536 41.3515 19.5181C41.3554 19.5117 41.3594 19.5053 41.3629 19.4986C41.3862 19.4582 41.4095 19.417 41.4324 19.3755L41.4482 19.3466C41.4671 19.3122 41.4857 19.2774 41.5042 19.2422C41.5098 19.2325 41.5153 19.2224 41.5204 19.2123C41.5425 19.17 41.5646 19.1273 41.5867 19.0839L41.6021 19.0536L41.6051 19.0476C41.6127 19.0323 41.6203 19.0169 41.6278 19.0015C41.6368 18.9832 41.6458 18.9649 41.6546 18.9466L41.6736 18.9092C41.6949 18.865 41.7158 18.8201 41.7367 18.7748L41.7498 18.746C41.7671 18.7086 41.7841 18.6711 41.8011 18.6337L41.8212 18.5888C41.841 18.5435 41.8607 18.4979 41.8796 18.4518C41.8832 18.4436 41.8867 18.435 41.8899 18.4268C41.9077 18.3845 41.925 18.3414 41.9424 18.298L41.9621 18.2486C41.9783 18.2074 41.9945 18.1659 42.0103 18.1244L42.0221 18.0929C42.036 18.0561 42.0496 18.0187 42.0631 17.9814L42.077 17.9432L42.096 17.8901C42.1102 17.8504 42.124 17.81 42.1378 17.7696L42.1455 17.747L42.1528 17.7247C42.1702 17.673 42.1875 17.6203 42.2045 17.5675C42.21 17.5492 42.216 17.5301 42.2215 17.5128L42.261 17.3897L42.2618 17.3869C42.2667 17.3697 42.2719 17.3515 42.2768 17.3362C42.2929 17.2819 42.3091 17.2266 42.3245 17.1708C42.3297 17.1532 42.3344 17.1352 42.3391 17.1173L42.3394 17.1162C42.3512 17.0736 42.3629 17.0309 42.3743 16.9874C42.3794 16.9676 42.3845 16.9477 42.3901 16.9279C42.4047 16.8703 42.4193 16.8123 42.4335 16.7535L42.4453 16.7045L42.4597 16.6433L42.471 16.5941L42.4781 16.563L42.4923 16.4994C42.5057 16.4384 42.5191 16.3774 42.5318 16.3153C42.5345 16.3033 42.5369 16.2909 42.5393 16.2778C42.5503 16.2243 42.561 16.1701 42.5712 16.1158L42.5839 16.0496C42.5896 16.0183 42.5953 15.9868 42.6008 15.9553L42.6139 15.8815L42.6173 15.8624L42.6202 15.8463C42.6312 15.7805 42.642 15.7141 42.6526 15.6472C42.6561 15.6248 42.6597 15.6023 42.6628 15.5795C42.6711 15.5252 42.679 15.4706 42.6869 15.4152L42.694 15.3643C42.7035 15.2955 42.7126 15.2262 42.7212 15.1559L42.7291 15.0892C42.736 15.0334 42.7423 14.9772 42.7481 14.9208L42.7487 14.9153C42.7509 14.897 42.753 14.8789 42.7548 14.8606C42.7624 14.7882 42.7695 14.7153 42.7761 14.6417C42.7761 14.6285 42.7776 14.6154 42.779 14.6021C42.7799 14.5946 42.7807 14.5871 42.7812 14.5795C42.7864 14.5204 42.7915 14.4609 42.7959 14.401C42.7959 14.3868 42.7973 14.3727 42.7988 14.3585C42.7996 14.3506 42.8004 14.3427 42.801 14.3348C42.8065 14.2584 42.8116 14.1816 42.8164 14.1042C42.8164 14.0867 42.8164 14.0668 42.8191 14.0511C42.8227 13.9867 42.8263 13.922 42.829 13.8569C42.829 13.8333 42.829 13.8097 42.8322 13.7861C42.8353 13.7057 42.8385 13.6248 42.8409 13.5429V13.5084C42.843 13.4356 42.8445 13.362 42.8456 13.2876V12.6181C42.8456 12.564 42.8439 12.5078 42.8423 12.4515L42.8405 12.3868V12.3445C42.8378 12.2564 42.8343 12.1673 42.8308 12.0777L42.8306 12.0725C42.8306 12.0583 42.8297 12.0441 42.8289 12.0298L42.828 12.0151L42.8274 12.0014C42.824 11.9245 42.8201 11.8472 42.8156 11.7693C42.8156 11.7502 42.8156 11.7319 42.8124 11.7113C42.8069 11.6178 42.8009 11.5235 42.7943 11.4284L42.7895 11.3622L42.7889 11.3534C42.7832 11.2769 42.7775 11.2001 42.771 11.1226C42.771 11.1066 42.7693 11.0905 42.7676 11.0745C42.7668 11.0673 42.7661 11.0602 42.7655 11.053C42.7572 10.9557 42.7481 10.8573 42.7386 10.7585C42.7386 10.7469 42.7371 10.7353 42.7356 10.7236C42.7346 10.7164 42.7337 10.7092 42.7331 10.702C42.7256 10.6263 42.7175 10.55 42.7094 10.473L42.7066 10.4471C42.7039 10.4213 42.7011 10.3959 42.698 10.37C42.6869 10.2682 42.6751 10.1661 42.6624 10.0624C42.6624 10.054 42.6609 10.0456 42.6594 10.0375C42.6586 10.0333 42.6578 10.0291 42.6573 10.025C42.646 9.93217 42.634 9.83886 42.6214 9.74505L42.6099 9.66197C42.5952 9.55569 42.5801 9.44852 42.5645 9.34049C40.9855 -1.31572 29.796 0.413656 29.796 0.413656L30.1544 2.70328L23.3872 9.48083L23.6829 12.0979L26.2464 13.5949C26.3607 13.3195 26.5074 13.0573 26.6838 12.8131C28.3378 11.0044 31.5467 9.5845 32.4653 9.28997C32.6492 9.23121 32.7538 9.20165 32.7538 9.20165C28.3599 14.593 28.8596 20.7695 29.0554 22.2418C28.8517 22.2792 28.6942 22.5124 28.6942 22.7968C28.6942 23.1067 28.8809 23.3582 29.1111 23.3582H30.5239C28.1742 24.2906 26.3091 26.0665 25.3357 28.2982C25.3345 28.3012 25.3332 28.3042 25.3317 28.3072C25.2599 28.4728 25.1931 28.6409 25.1312 28.8113L25.1313 28.8136L25.1312 28.8165C25.1146 28.8629 25.0984 28.9093 25.0827 28.9561C25.0768 28.9728 25.0708 28.9899 25.0653 29.007C25.0511 29.0489 25.0379 29.0912 25.0258 29.1339L25.0188 29.1558L25.009 29.1874L25.0053 29.1994C24.9927 29.2394 24.9804 29.2798 24.9686 29.3202L24.9473 29.3951C24.9362 29.4325 24.9252 29.4726 24.9149 29.5115C24.9074 29.5392 24.9003 29.5665 24.8932 29.5942L24.8797 29.647L24.8722 29.6766L24.8648 29.7065C24.8557 29.7439 24.847 29.7813 24.8383 29.821C24.8341 29.84 24.8294 29.8607 24.8246 29.8818C24.8194 29.9046 24.814 29.9279 24.8091 29.9505H24.2458C24.1375 29.9482 24.0298 29.9665 23.929 30.0042C23.8282 30.0419 23.7364 30.0984 23.659 30.1702C23.5815 30.242 23.52 30.3278 23.4779 30.4225C23.4359 30.5172 23.4143 30.6189 23.4143 30.7216C23.4143 30.8243 23.4359 30.926 23.4779 31.0207C23.52 31.1154 23.5815 31.2011 23.659 31.273C23.7364 31.3448 23.8282 31.4012 23.929 31.439C24.0298 31.4767 24.1375 31.495 24.2458 31.4927H44.2106C44.319 31.495 44.4267 31.4767 44.5274 31.439C44.6282 31.4012 44.72 31.3448 44.7975 31.273C44.8749 31.2011 44.9365 31.1154 44.9785 31.0207C45.0205 30.926 45.0421 30.8243 45.0421 30.7216C45.0421 30.6189 45.0205 30.5172 44.9785 30.4225C44.9365 30.3278 44.8749 30.242 44.7975 30.1702C44.72 30.0984 44.6282 30.0419 44.5274 30.0042C44.4267 29.9665 44.319 29.9482 44.2106 29.9505L44.2035 29.9437Z" fill="#595653"/>
<path d="M67.0283 29.9437H67.5912L67.5983 29.9505C67.7067 29.9482 67.8144 29.9665 67.9151 30.0042C68.0159 30.0419 68.1077 30.0984 68.1852 30.1702C68.2626 30.242 68.3242 30.3278 68.3662 30.4225C68.4082 30.5172 68.4298 30.6189 68.4298 30.7216C68.4298 30.8243 68.4082 30.926 68.3662 31.0207C68.3242 31.1154 68.2626 31.2011 68.1852 31.273C68.1077 31.3448 68.0159 31.4012 67.9151 31.439C67.8144 31.4767 67.7067 31.495 67.5983 31.4927H47.6335C47.5252 31.495 47.4175 31.4767 47.3167 31.439C47.2159 31.4012 47.1241 31.3448 47.0466 31.273C46.9692 31.2011 46.9077 31.1154 46.8656 31.0207C46.8236 30.926 46.802 30.8243 46.802 30.7216C46.802 30.6189 46.8236 30.5172 46.8656 30.4225C46.9077 30.3278 46.9692 30.242 47.0466 30.1702C47.1241 30.0984 47.2159 30.0419 47.3167 30.0042C47.4175 29.9665 47.5252 29.9482 47.6335 29.9505H48.1968C48.2017 29.9279 48.2071 29.9045 48.2123 29.8816C48.2171 29.8606 48.2218 29.84 48.226 29.821C48.2347 29.7813 48.2434 29.7439 48.2525 29.7065C48.2585 29.6816 48.2649 29.6568 48.2712 29.632L48.2809 29.5942L48.2914 29.5535L48.3026 29.5115L48.3108 29.4807L48.3203 29.446C48.3252 29.4287 48.3301 29.4117 48.335 29.3951L48.3563 29.3202C48.3639 29.2942 48.3717 29.2682 48.3796 29.2423L48.393 29.1994C48.3997 29.1777 48.4064 29.1556 48.4135 29.1339C48.4256 29.0912 48.4388 29.0489 48.453 29.007C48.4585 28.9898 48.4644 28.973 48.4703 28.9562C48.4861 28.9094 48.5023 28.8629 48.5189 28.8165L48.519 28.814L48.5189 28.8113C48.5808 28.6409 48.6476 28.4728 48.7194 28.3072C48.7209 28.3042 48.7222 28.3012 48.7234 28.2982C49.6968 26.0665 51.5619 24.2906 53.9116 23.3582H52.4988C52.2686 23.3582 52.0819 23.1067 52.0819 22.7968C52.0819 22.5124 52.2394 22.2792 52.4431 22.2418C52.2473 20.7695 51.7476 14.593 56.1415 9.20165C56.1415 9.20165 56.0369 9.23121 55.853 9.28997C54.9344 9.5845 51.7255 11.0044 50.0715 12.8131C49.8951 13.0573 49.7484 13.3195 49.6341 13.5949L47.0706 12.0979L46.7749 9.48083L53.5421 2.70328L53.1837 0.413656C53.1837 0.413656 64.3732 -1.31572 65.9522 9.34049C65.9678 9.44852 65.9829 9.55569 65.9976 9.66197L66.0091 9.74505C66.0217 9.83886 66.0337 9.93217 66.045 10.025C66.0452 10.0265 66.0454 10.0281 66.0457 10.0297C66.0461 10.0323 66.0466 10.0348 66.0471 10.0374C66.0486 10.0456 66.0501 10.054 66.0501 10.0624C66.0628 10.1661 66.0746 10.2682 66.0857 10.37C66.0888 10.3959 66.0916 10.4213 66.0943 10.4471L66.0971 10.4729C66.1052 10.5499 66.1133 10.6262 66.1208 10.702L66.1218 10.7122L66.1233 10.7236C66.1248 10.7353 66.1263 10.7469 66.1263 10.7585C66.1358 10.8573 66.1449 10.9557 66.1532 11.053L66.1553 11.0744C66.157 11.0904 66.1587 11.1066 66.1587 11.1226C66.1651 11.1994 66.1708 11.2754 66.1764 11.3511L66.1772 11.3622L66.182 11.4284C66.1886 11.5235 66.1946 11.6178 66.2001 11.7113C66.2033 11.7319 66.2033 11.7502 66.2033 11.7693C66.2078 11.8472 66.2117 11.9245 66.2151 12.0014C66.2154 12.0107 66.216 12.0201 66.2166 12.0295C66.2174 12.0438 66.2183 12.0583 66.2183 12.0725L66.2186 12.0803C66.222 12.169 66.2255 12.2573 66.2282 12.3445V12.3868L66.23 12.4513C66.2316 12.5077 66.2333 12.5639 66.2333 12.6181V13.2876C66.2322 13.362 66.2307 13.4356 66.2286 13.5084V13.5429C66.2262 13.6248 66.223 13.7057 66.2199 13.7861C66.2167 13.8097 66.2167 13.8333 66.2167 13.8569C66.2139 13.922 66.2104 13.9867 66.2068 14.0511C66.2041 14.0668 66.2041 14.0867 66.2041 14.1042C66.1993 14.1816 66.1942 14.2584 66.1887 14.3348L66.1881 14.3426L66.1865 14.3584C66.185 14.3726 66.1836 14.3868 66.1836 14.401C66.1792 14.4609 66.1741 14.5204 66.1689 14.5795C66.1686 14.5847 66.1681 14.5898 66.1675 14.5948L66.1667 14.6021C66.1653 14.6154 66.1638 14.6285 66.1638 14.6417C66.1572 14.7153 66.1501 14.7882 66.1425 14.8606C66.1407 14.8787 66.1386 14.8965 66.1365 14.9146L66.1358 14.9208C66.13 14.9772 66.1237 15.0334 66.1168 15.0892L66.1089 15.1559C66.1003 15.2262 66.0912 15.2955 66.0817 15.3643L66.0746 15.4152C66.0667 15.4706 66.0588 15.5252 66.0505 15.5795C66.0474 15.6019 66.0439 15.624 66.0404 15.6461L66.0403 15.6472C66.0297 15.7141 66.0189 15.7805 66.0079 15.8463C66.0059 15.8579 66.0035 15.8695 66.0016 15.8815L65.9959 15.9138C65.9879 15.959 65.9799 16.0045 65.9716 16.0496C65.9672 16.0716 65.9633 16.0937 65.9589 16.1158C65.9534 16.145 65.9478 16.1741 65.942 16.2032L65.9376 16.2257L65.927 16.2778C65.9246 16.2909 65.9222 16.3033 65.9195 16.3153C65.9068 16.3774 65.8934 16.4384 65.88 16.4994L65.8658 16.563L65.8574 16.6001L65.8433 16.661L65.833 16.7045L65.8212 16.7535C65.807 16.8123 65.7924 16.8703 65.7777 16.9279L65.7743 16.9403L65.7673 16.9666L65.762 16.9874C65.7558 17.0108 65.7496 17.034 65.7433 17.0571L65.7268 17.1173L65.7265 17.1186C65.7218 17.1361 65.7172 17.1536 65.7122 17.1708C65.6968 17.2266 65.6806 17.2819 65.6645 17.3362C65.6595 17.3517 65.6542 17.3702 65.6493 17.3876L65.6487 17.3897L65.6092 17.5128C65.6037 17.5301 65.5977 17.5492 65.5922 17.5675C65.5752 17.6203 65.5579 17.673 65.5405 17.7247C65.5358 17.7396 65.5306 17.7546 65.5255 17.7696L65.51 17.8149C65.5013 17.8402 65.4926 17.8653 65.4837 17.8901L65.4647 17.9432L65.4505 17.9824L65.4499 17.9839C65.4367 18.0204 65.4234 18.0569 65.4098 18.0929L65.398 18.1244C65.3822 18.1659 65.366 18.2074 65.3498 18.2486L65.3301 18.298C65.3127 18.3414 65.2954 18.3845 65.2776 18.4268L65.2719 18.441L65.2673 18.4518C65.2484 18.4979 65.2287 18.5435 65.2089 18.5888L65.1888 18.6337L65.1878 18.6358C65.1712 18.6725 65.1545 18.7093 65.1375 18.746L65.1244 18.7748C65.1035 18.8201 65.0826 18.865 65.0613 18.9092L65.0423 18.9466C65.025 18.9825 65.0072 19.0184 64.9898 19.0536L64.9744 19.0839C64.9523 19.1273 64.9302 19.17 64.9081 19.2123C64.903 19.2224 64.8975 19.2325 64.8919 19.2422C64.8734 19.2774 64.8548 19.3122 64.8359 19.3466L64.8201 19.3755C64.7972 19.417 64.7739 19.4582 64.7506 19.4986C64.7471 19.5053 64.7431 19.5117 64.7392 19.5181C64.719 19.5536 64.6981 19.5888 64.6776 19.6232L64.6622 19.649L64.6475 19.6735C64.6284 19.7055 64.609 19.7379 64.5896 19.7677C64.5868 19.7695 64.5868 19.7725 64.5868 19.7725L64.5157 19.8848L64.5023 19.9054C64.4526 19.9832 64.402 20.0577 64.3515 20.1299L64.3413 20.1445C64.2905 20.2181 64.2388 20.2894 64.1861 20.3582L64.1806 20.3653C63.4858 21.2852 62.7855 21.786 62.3876 22.021C62.3565 22.1011 62.3276 22.1722 62.3016 22.2351H62.7224C62.9525 22.2351 63.1392 22.4862 63.1392 22.7964C63.1392 23.1067 62.9525 23.3578 62.7224 23.3578H61.3096C61.3814 23.3862 61.4525 23.415 61.5231 23.445L61.5397 23.4521C61.8076 23.5656 62.0687 23.6904 62.3229 23.8263L62.3438 23.8376C62.3916 23.8634 62.4394 23.8892 62.4871 23.9158L62.493 23.9195C62.6438 24.0039 62.7919 24.0921 62.9371 24.1841L62.9446 24.1886L63.0135 24.2329C63.0343 24.2463 63.055 24.2599 63.0757 24.2736L63.1037 24.2919C63.1464 24.32 63.1886 24.3484 63.2308 24.3772L63.2494 24.3903C63.3828 24.4828 63.515 24.5789 63.6441 24.6777L63.6635 24.6923C63.6801 24.7052 63.6963 24.7181 63.7126 24.7309C63.7337 24.7477 63.7548 24.7645 63.7772 24.7814L63.8135 24.8106C63.8501 24.8398 63.8864 24.8694 63.9224 24.8993L63.9544 24.9259C64.0713 25.0221 64.1861 25.1224 64.2978 25.2253L64.3306 25.2552C64.3626 25.2848 64.3941 25.3147 64.4257 25.345L64.4703 25.3877L64.5611 25.4764L64.6046 25.5202C64.7036 25.6197 64.8003 25.7219 64.8947 25.8256L64.9401 25.8757L65.0167 25.9625L65.068 26.0217C65.0925 26.0505 65.1169 26.0789 65.141 26.1077L65.1931 26.1706C65.2164 26.199 65.2401 26.2275 65.263 26.2563L65.3171 26.3248C65.3323 26.3445 65.3472 26.3642 65.362 26.3839C65.3847 26.4139 65.4078 26.4445 65.4315 26.4745L65.4872 26.5493C65.4953 26.5603 65.5034 26.5718 65.5115 26.5833C65.5237 26.6005 65.5357 26.6175 65.5468 26.6317C65.5654 26.6553 65.5843 26.6796 65.6017 26.7065C65.6129 26.7239 65.6255 26.7415 65.638 26.7591C65.6449 26.7688 65.6518 26.7784 65.6585 26.7881L65.6788 26.8178L65.6932 26.8392L65.7146 26.8708C65.7324 26.8966 65.7497 26.9225 65.7671 26.9487C65.7902 26.9835 65.8129 27.0188 65.8354 27.054L65.8484 27.0744L65.9053 27.1657C65.922 27.1907 65.9367 27.2155 65.9516 27.2405L65.9672 27.2668C65.9822 27.2907 65.9972 27.3162 66.0118 27.3416C66.0304 27.373 66.0485 27.4045 66.0667 27.4359L66.1101 27.5108L66.1658 27.6122L66.2053 27.6822C66.2345 27.7361 66.2633 27.7926 66.2913 27.8483L66.3021 27.8704C66.3064 27.8793 66.3109 27.8886 66.3154 27.8974C66.3344 27.933 66.3511 27.9689 66.3679 28.0051L66.3774 28.0254L66.3928 28.0579L66.4101 28.0953L66.4355 28.1505L66.4611 28.2076L66.493 28.2798L66.5031 28.3032L66.5163 28.3344C66.5253 28.3559 66.5342 28.3772 66.5432 28.3974C66.5522 28.4187 66.5613 28.44 66.57 28.4617C66.5945 28.5212 66.6186 28.5807 66.6415 28.6406L66.6476 28.6567C66.6496 28.662 66.6515 28.6674 66.6537 28.6728C66.6732 28.7237 66.6921 28.775 66.7105 28.8266L66.7181 28.8482L66.7334 28.8917L66.751 28.9419C66.7595 28.9665 66.7678 28.9913 66.7761 29.016L66.7898 29.0577L66.799 29.086C66.8061 29.1103 66.8136 29.1346 66.8212 29.159C66.827 29.1778 66.8328 29.1966 66.8384 29.2155L66.8574 29.2765C66.8763 29.3396 66.8945 29.4029 66.9119 29.4666L66.9166 29.4834C66.9324 29.5422 66.9478 29.6009 66.9624 29.6597L66.971 29.6949L66.9774 29.7226C66.9884 29.7671 66.9991 29.812 67.009 29.8573L67.0244 29.9261C67.0256 29.9318 67.0283 29.9377 67.0283 29.9437Z" fill="#595653"/>
<path d="M90.9784 29.9437H90.4155C90.4155 29.9377 90.4128 29.9318 90.4116 29.9261L90.3962 29.8573C90.3863 29.812 90.3757 29.7671 90.3646 29.7226L90.358 29.6943L90.3496 29.6597C90.335 29.6009 90.3196 29.5422 90.3038 29.4834L90.2991 29.4666C90.2817 29.4029 90.2635 29.3396 90.2446 29.2765L90.2256 29.2155C90.2218 29.2027 90.2179 29.1899 90.214 29.1772L90.2084 29.159L90.208 29.1579C90.2006 29.1339 90.1932 29.1099 90.1862 29.086C90.1819 29.0726 90.1775 29.0593 90.1732 29.0461L90.1633 29.016C90.1495 28.9744 90.1352 28.9329 90.1206 28.8917L90.1053 28.8482L90.0977 28.8266C90.0793 28.775 90.0604 28.7237 90.0409 28.6728C90.0366 28.6619 90.033 28.6515 90.0287 28.6406C90.0058 28.5807 89.9817 28.5212 89.9572 28.4617C89.9485 28.4401 89.9395 28.4188 89.9304 28.3974C89.9215 28.3772 89.9125 28.3559 89.9035 28.3344C89.8958 28.3161 89.8881 28.2978 89.8802 28.2798L89.8483 28.2076C89.8412 28.1917 89.8341 28.1758 89.8269 28.1599C89.8172 28.1384 89.8073 28.1169 89.7973 28.0953C89.7867 28.0721 89.7756 28.0486 89.7646 28.0254C89.7444 27.9823 89.7251 27.9397 89.7026 27.8974C89.6981 27.8886 89.6938 27.8798 89.6895 27.8709L89.6785 27.8483C89.6505 27.7926 89.6217 27.7361 89.5925 27.6822L89.553 27.6122L89.4973 27.5108L89.4539 27.4359C89.4358 27.4045 89.4176 27.373 89.399 27.3416C89.3844 27.3162 89.3694 27.2907 89.3544 27.2668L89.339 27.2409C89.324 27.2157 89.3092 27.1908 89.2925 27.1657L89.2356 27.0744L89.2226 27.054C89.2001 27.0188 89.1775 26.9835 89.1543 26.9487C89.1369 26.9225 89.1196 26.8966 89.1018 26.8708C89.0938 26.8592 89.0856 26.8469 89.0771 26.8344L89.0642 26.8151C89.058 26.806 89.0519 26.7969 89.0457 26.7881C89.039 26.7784 89.0321 26.7688 89.0253 26.7591C89.0127 26.7415 89.0001 26.7239 88.9889 26.7065C88.9715 26.6796 88.9526 26.6553 88.934 26.6317C88.9229 26.6175 88.9109 26.6005 88.8987 26.5833C88.8906 26.5718 88.8825 26.5603 88.8744 26.5493L88.8188 26.4745C88.8045 26.4565 88.7906 26.4385 88.7769 26.4204C88.7677 26.4084 88.7587 26.3964 88.7496 26.3844C88.7346 26.3646 88.7197 26.3447 88.7043 26.3248L88.6502 26.2563C88.6273 26.2275 88.6036 26.199 88.5803 26.1706L88.5282 26.1077C88.5119 26.0882 88.4953 26.0688 88.4788 26.0493L88.4552 26.0217L88.4039 25.9625L88.3273 25.8757L88.2819 25.8256C88.1876 25.7219 88.0908 25.6197 87.9918 25.5202L87.9483 25.4764L87.8575 25.3877L87.8129 25.345C87.7814 25.3147 87.7498 25.2848 87.7178 25.2552L87.685 25.2253C87.5733 25.1224 87.4585 25.0221 87.3416 24.9259L87.3096 24.8993C87.2736 24.8694 87.2373 24.8398 87.2007 24.8106L87.1644 24.7814C87.1249 24.7515 87.089 24.7219 87.0507 24.6923L87.0313 24.6777C86.9023 24.5789 86.77 24.4828 86.6366 24.3903L86.618 24.3772C86.5758 24.3484 86.5336 24.32 86.4909 24.2919L86.4629 24.2736C86.4446 24.2614 86.4262 24.2494 86.4078 24.2374C86.3825 24.2211 86.3572 24.2048 86.3318 24.1886L86.3243 24.1841C86.1791 24.0921 86.031 24.0039 85.8802 23.9195L85.8743 23.9158L85.8363 23.8948C85.8012 23.8755 85.7661 23.8565 85.731 23.8376L85.7101 23.8263C85.4559 23.6904 85.1948 23.5656 84.9269 23.4521L84.9103 23.445C84.8397 23.415 84.7686 23.3862 84.6968 23.3578H86.1096C86.3397 23.3578 86.5265 23.1067 86.5265 22.7964C86.5265 22.4862 86.3397 22.2351 86.1096 22.2351H85.6888C85.7148 22.1722 85.7437 22.1011 85.7748 22.021C86.1728 21.786 86.873 21.2852 87.5678 20.3653L87.5733 20.3582C87.626 20.2894 87.6777 20.2181 87.7285 20.1445L87.7387 20.1299C87.7893 20.0577 87.8398 19.9832 87.8895 19.9054L87.9029 19.8848L87.974 19.7725C87.974 19.7725 87.974 19.7695 87.9768 19.7677C87.9962 19.7379 88.0154 19.7058 88.0346 19.6738L88.0494 19.649L88.0648 19.6232C88.0853 19.5888 88.1062 19.5536 88.1264 19.5181C88.1303 19.5117 88.1343 19.5053 88.1378 19.4986C88.1611 19.4582 88.1844 19.417 88.2073 19.3755L88.2231 19.3466C88.242 19.3122 88.2606 19.2774 88.2791 19.2422C88.2847 19.2325 88.2902 19.2224 88.2953 19.2123C88.3174 19.17 88.3395 19.1273 88.3616 19.0839L88.377 19.0536L88.3795 19.0486C88.3961 19.015 88.413 18.9808 88.4295 18.9466L88.4485 18.9092C88.4698 18.865 88.4907 18.8201 88.5116 18.7748L88.5247 18.746C88.542 18.7086 88.559 18.6711 88.576 18.6337L88.5961 18.5888C88.6159 18.5435 88.6356 18.4979 88.6545 18.4518C88.6568 18.4466 88.659 18.4413 88.6612 18.4359C88.6624 18.4329 88.6637 18.4298 88.6648 18.4268C88.6826 18.3845 88.6999 18.3414 88.7173 18.298L88.737 18.2486C88.7532 18.2074 88.7694 18.1659 88.7852 18.1244L88.7971 18.0929C88.8156 18.0435 88.8338 17.993 88.8519 17.9432L88.8709 17.8901C88.8784 17.869 88.8859 17.8476 88.8933 17.8262L88.9127 17.7696L88.9131 17.7686C88.9181 17.754 88.9231 17.7393 88.9277 17.7247C88.9451 17.673 88.9624 17.6203 88.9794 17.5675L88.9851 17.5488L88.9964 17.5128L89.0359 17.3897L89.0365 17.3876C89.0414 17.3702 89.0467 17.3517 89.0517 17.3362C89.0678 17.2819 89.084 17.2266 89.0994 17.1708C89.1045 17.1534 89.1092 17.1357 89.1138 17.118C89.1257 17.075 89.1377 17.0312 89.1492 16.9874C89.1543 16.9676 89.1594 16.9477 89.165 16.9279C89.1796 16.8703 89.1942 16.8123 89.2084 16.7535L89.2202 16.7045C89.2269 16.676 89.2337 16.6474 89.2403 16.6187C89.2446 16.6002 89.2488 16.5816 89.253 16.563L89.2672 16.4994C89.2806 16.4384 89.294 16.3774 89.3067 16.3153C89.3081 16.3092 89.3094 16.3029 89.3107 16.2966L89.3142 16.2778C89.3252 16.2243 89.3359 16.1701 89.3461 16.1158C89.3505 16.0937 89.3544 16.0716 89.3588 16.0496C89.369 15.9938 89.3789 15.9373 89.3888 15.8815L89.3922 15.8624L89.3951 15.8463C89.4061 15.7805 89.4169 15.7141 89.4275 15.6472L89.4277 15.6461C89.4298 15.6327 89.4319 15.6192 89.4339 15.6057C89.4352 15.597 89.4365 15.5883 89.4377 15.5795C89.446 15.5252 89.4539 15.4706 89.4618 15.4152L89.4689 15.3643C89.4784 15.2955 89.4875 15.2262 89.4962 15.1559C89.4989 15.1338 89.5013 15.1117 89.504 15.0892C89.5109 15.0334 89.5172 14.9772 89.523 14.9208L89.5237 14.9146C89.5258 14.8965 89.5279 14.8787 89.5297 14.8606C89.5373 14.7882 89.5444 14.7153 89.551 14.6417C89.551 14.6348 89.5514 14.628 89.552 14.6212C89.5525 14.6149 89.5532 14.6085 89.5539 14.6021C89.5548 14.5946 89.5556 14.5871 89.5562 14.5795C89.5613 14.5204 89.5664 14.4609 89.5708 14.401C89.5708 14.3868 89.5722 14.3726 89.5737 14.3584C89.5745 14.3505 89.5753 14.3427 89.5759 14.3348C89.5814 14.2584 89.5865 14.1816 89.5913 14.1042C89.5913 14.0867 89.5913 14.0668 89.594 14.0511C89.5976 13.9867 89.6012 13.922 89.6039 13.8569C89.6039 13.8333 89.6039 13.8097 89.6071 13.7861C89.6102 13.7057 89.6134 13.6248 89.6158 13.5429V13.5084C89.6179 13.4356 89.6194 13.362 89.6205 13.2876V12.6181C89.6205 12.5639 89.6188 12.5077 89.6172 12.4513L89.6154 12.3868V12.3445C89.6127 12.2573 89.6092 12.169 89.6058 12.0803L89.6055 12.0725C89.6055 12.0583 89.6046 12.044 89.6038 12.0297C89.6032 12.0202 89.6026 12.0108 89.6023 12.0014C89.5989 11.9245 89.595 11.8472 89.5905 11.7693C89.5905 11.7502 89.5905 11.7319 89.5873 11.7113C89.5818 11.6178 89.5758 11.5235 89.5692 11.4284L89.5644 11.3622C89.5585 11.2828 89.5526 11.2031 89.5459 11.1226C89.5459 11.1066 89.5442 11.0907 89.5425 11.0747L89.5404 11.053C89.5321 10.9557 89.523 10.8573 89.5135 10.7585C89.5135 10.7469 89.512 10.7353 89.5105 10.7236C89.5095 10.7164 89.5086 10.7092 89.508 10.702C89.4997 10.6178 89.4906 10.5328 89.4815 10.4471C89.4788 10.4213 89.476 10.3959 89.4729 10.37C89.4618 10.2682 89.45 10.1661 89.4373 10.0624C89.4373 10.054 89.4358 10.0456 89.4343 10.0374C89.4335 10.0332 89.4327 10.0291 89.4322 10.025C89.4209 9.93217 89.4089 9.83886 89.3963 9.74505L89.3848 9.66197C89.3701 9.55569 89.355 9.44852 89.3394 9.34049C87.7604 -1.31572 76.5709 0.413656 76.5709 0.413656L76.9293 2.70328L70.1621 9.48083L70.4578 12.0979L73.0213 13.5949C73.1356 13.3195 73.2823 13.0573 73.4587 12.8131C75.1127 11.0044 78.3216 9.5845 79.2402 9.28997C79.4241 9.23121 79.5287 9.20165 79.5287 9.20165C75.1348 14.593 75.6345 20.7695 75.8303 22.2418C75.6266 22.2792 75.4691 22.5124 75.4691 22.7968C75.4691 23.1067 75.6558 23.3582 75.886 23.3582H77.2988C74.9491 24.2906 73.084 26.0665 72.1106 28.2982C72.1102 28.2993 72.1097 28.3005 72.1092 28.3016C72.1084 28.3035 72.1076 28.3053 72.1066 28.3072C72.0348 28.4728 71.968 28.6409 71.9061 28.8113C71.9062 28.813 71.9062 28.8148 71.9061 28.8165C71.8895 28.8629 71.8734 28.9093 71.8576 28.9561C71.8516 28.9729 71.8457 28.9898 71.8402 29.007C71.826 29.0489 71.8128 29.0912 71.8007 29.1339C71.7949 29.1518 71.7893 29.1699 71.7837 29.1879L71.7802 29.1994C71.7676 29.2394 71.7553 29.2798 71.7435 29.3202L71.7222 29.3951C71.7111 29.4325 71.7001 29.4726 71.6898 29.5115C71.6877 29.5193 71.6856 29.527 71.6835 29.5348C71.6783 29.5546 71.6732 29.5743 71.6681 29.5942C71.6586 29.6316 71.6487 29.669 71.6397 29.7065C71.6306 29.7439 71.6219 29.7813 71.6132 29.821C71.6091 29.8396 71.6045 29.8598 71.5998 29.8804L71.5988 29.8848C71.5938 29.9066 71.5887 29.9289 71.584 29.9505H71.0207C70.9124 29.9482 70.8047 29.9665 70.7039 30.0042C70.6031 30.0419 70.5113 30.0984 70.4339 30.1702C70.3564 30.242 70.2949 30.3278 70.2528 30.4225C70.2108 30.5172 70.1892 30.6189 70.1892 30.7216C70.1892 30.8243 70.2108 30.926 70.2528 31.0207C70.2949 31.1154 70.3564 31.2011 70.4339 31.273C70.5113 31.3448 70.6031 31.4012 70.7039 31.439C70.8047 31.4767 70.9124 31.495 71.0207 31.4927H90.9855C91.0939 31.495 91.2016 31.4767 91.3023 31.439C91.4031 31.4012 91.4949 31.3448 91.5724 31.273C91.6498 31.2011 91.7114 31.1154 91.7534 31.0207C91.7954 30.926 91.817 30.8243 91.817 30.7216C91.817 30.6189 91.7954 30.5172 91.7534 30.4225C91.7114 30.3278 91.6498 30.242 91.5724 30.1702C91.4949 30.0984 91.4031 30.0419 91.3023 30.0042C91.2016 29.9665 91.0939 29.9482 90.9855 29.9505L90.9784 29.9437Z" fill="#595653"/>
<path d="M99.3345 1.34411V13H102.332V8.05457H103.164L106.661 13H110.158L105.495 6.78908L109.991 1.34411H106.728L103.164 5.95651H102.332V1.34411H99.3345Z" fill="#595653"/>
<path d="M111.44 13.1998C111.607 13.2109 111.734 13.2165 111.823 13.2165C112.289 13.2165 112.717 13.161 113.105 13.05C113.505 12.9389 113.86 12.7336 114.171 12.4339C114.482 12.123 114.743 11.679 114.953 11.1018C115.175 10.5245 115.342 9.76966 115.453 8.83718C115.564 7.89361 115.619 6.72802 115.619 5.34042V3.79185H118.633V13H121.647V1.34411H112.822V5.00739C112.822 6.02867 112.805 6.87788 112.772 7.55504C112.739 8.22109 112.678 8.75393 112.589 9.15356C112.511 9.55319 112.417 9.85846 112.306 10.0694C112.195 10.2692 112.056 10.4024 111.89 10.469C111.734 10.5245 111.545 10.5523 111.323 10.5523C111.19 10.5523 111.107 10.5467 111.074 10.5356V13.1665C111.162 13.1887 111.285 13.1998 111.44 13.1998Z" fill="#595653"/>
<path d="M125.951 13.1998C126.073 13.2109 126.195 13.2165 126.317 13.2165C126.917 13.2165 127.427 13.161 127.849 13.05C128.282 12.95 128.654 12.7835 128.965 12.5504C129.287 12.3062 129.57 11.9898 129.814 11.6013C130.069 11.2128 130.325 10.7299 130.58 10.1526L134.477 1.34411H131.546L129.115 7.25531L126.018 1.34411H122.97L127.649 9.85291C127.583 10.0749 127.5 10.2525 127.4 10.3858C127.3 10.5079 127.161 10.5967 126.983 10.6522C126.806 10.6966 126.556 10.7188 126.234 10.7188C126.112 10.7188 126.007 10.7132 125.918 10.7021L125.651 10.6688V13.1499C125.74 13.1832 125.84 13.1998 125.951 13.1998Z" fill="#595653"/>
<path fill-rule="evenodd" clip-rule="evenodd" d="M135.808 1.34411V13H140.72C142.341 13 143.534 12.667 144.3 12.0009C145.077 11.3238 145.466 10.3858 145.466 9.18686C145.466 8.07678 145.077 7.19426 144.3 6.53931C143.534 5.87326 142.341 5.54023 140.72 5.54023H138.805V3.8085H144.383V1.34411H135.808ZM140.387 10.5356H138.805V7.83811H140.387C141.109 7.83811 141.619 7.96022 141.919 8.20444C142.219 8.43755 142.369 8.76503 142.369 9.18686C142.369 9.60869 142.219 9.94172 141.919 10.1859C141.619 10.4191 141.109 10.5356 140.387 10.5356Z" fill="#595653"/>
<path d="M105.396 26.3543V31H108.409V19.3441H105.396V24.0897C105.207 24.2118 104.957 24.3284 104.646 24.4394C104.335 24.5393 103.952 24.5893 103.497 24.5893C102.998 24.5893 102.609 24.4505 102.332 24.173C102.054 23.8844 101.915 23.4126 101.915 22.7576V19.3441H98.9183V23.2572C98.9183 24.6004 99.2235 25.5772 99.8341 26.1878C100.456 26.7872 101.372 27.087 102.582 27.087C103.225 27.087 103.78 27.0148 104.247 26.8705C104.724 26.7151 105.107 26.543 105.396 26.3543Z" fill="#595653"/>
<path d="M110.733 19.3441V31H119.226V28.7021H113.731V26.0879H118.726V23.9232H113.731V21.642H119.226V19.3441H110.733Z" fill="#595653"/>
<path d="M124.213 21.8085V31H127.21V21.8085H130.79V19.3441H120.633V21.8085H124.213Z" fill="#595653"/>
<path fill-rule="evenodd" clip-rule="evenodd" d="M132.296 19.3441V31H136.708C138.329 31 139.522 30.6503 140.288 29.951C141.065 29.2516 141.454 28.3025 141.454 27.1036C141.454 25.9047 141.065 24.9556 140.288 24.2562C139.522 23.5569 138.329 23.2072 136.708 23.2072H135.293V19.3441H132.296ZM136.375 28.5356H135.293V25.6716H136.375C137.074 25.6716 137.58 25.8048 137.89 26.0712C138.201 26.3376 138.357 26.6818 138.357 27.1036C138.357 27.5254 138.201 27.8696 137.89 28.136C137.58 28.4024 137.074 28.5356 136.375 28.5356Z" fill="#595653"/>
<path d="M142.286 19.3441V31H145.284V19.3441H142.286Z" fill="#595653"/>
<path fill-rule="evenodd" clip-rule="evenodd" d="M147.613 19.3441V31H150.611V27.3034H152.359C153.447 27.3034 154.341 27.148 155.04 26.8372C155.739 26.5153 156.255 26.0546 156.588 25.4551C156.933 24.8557 157.105 24.1452 157.105 23.3238C157.105 22.4912 156.933 21.7808 156.588 21.1924C156.255 20.593 155.739 20.1378 155.04 19.827C154.341 19.5051 153.447 19.3441 152.359 19.3441H147.613ZM152.026 24.839H150.611V21.8085H152.026C152.792 21.8085 153.33 21.9362 153.641 22.1915C153.952 22.4468 154.107 22.8242 154.107 23.3238C154.107 23.8233 153.952 24.2007 153.641 24.4561C153.33 24.7114 152.792 24.839 152.026 24.839Z" fill="#595653"/>
<path d="M158.768 19.3441V31H167.261V28.7021H161.766V26.0879H166.761V23.9232H161.766V21.642H167.261V19.3441H158.768Z" fill="#595653"/>
<path d="M172.219 24.9223L168.422 31H171.703L174.134 26.9204L176.565 31H179.912L176.132 24.889L179.745 19.3441H176.498L174.184 22.8742L171.902 19.3441H168.589L172.219 24.9223Z" fill="#595653"/>
<path d="M185.652 19.3441V31H188.649V26.0546H189.482L192.978 31H196.475L191.813 24.7891L196.309 19.3441H193.045L189.482 23.9565H188.649V19.3441H185.652Z" fill="#595653"/>
<path fill-rule="evenodd" clip-rule="evenodd" d="M200.814 30.8834C201.502 31.1055 202.224 31.2165 202.979 31.2165C203.756 31.2165 204.483 31.1055 205.16 30.8834C205.837 30.6614 206.437 30.3117 206.959 29.8344C207.48 29.3571 207.891 28.741 208.191 27.9861C208.49 27.2202 208.64 26.3099 208.64 25.2553V24.9223C208.64 23.901 208.49 23.024 208.191 22.2914C207.891 21.5587 207.48 20.9593 206.959 20.4931C206.437 20.0268 205.837 19.6827 205.16 19.4607C204.483 19.2387 203.756 19.1276 202.979 19.1276C202.224 19.1276 201.502 19.2387 200.814 19.4607C200.126 19.6827 199.521 20.0268 198.999 20.4931C198.478 20.9593 198.067 21.5587 197.767 22.2914C197.467 23.024 197.317 23.901 197.317 24.9223V25.2553C197.317 26.3099 197.467 27.2202 197.767 27.9861C198.067 28.741 198.478 29.3571 198.999 29.8344C199.521 30.3117 200.126 30.6614 200.814 30.8834ZM204.228 28.4191C203.839 28.6189 203.417 28.7188 202.962 28.7188C202.529 28.7188 202.119 28.6189 201.73 28.4191C201.342 28.2081 201.025 27.8585 200.781 27.37C200.537 26.8705 200.415 26.1656 200.415 25.2553V24.9223C200.415 24.0564 200.537 23.3848 200.781 22.9075C201.025 22.4301 201.342 22.0971 201.73 21.9084C202.119 21.7197 202.529 21.6253 202.962 21.6253C203.417 21.6253 203.839 21.7197 204.228 21.9084C204.616 22.0971 204.927 22.4301 205.16 22.9075C205.404 23.3848 205.527 24.0564 205.527 24.9223V25.2553C205.527 26.1656 205.404 26.8705 205.16 27.37C204.927 27.8585 204.616 28.2081 204.228 28.4191Z" fill="#595653"/>
<path d="M210.547 19.3441V31H213.545V26.2377H217.874V31H220.871V19.3441H217.874V23.7734H213.545V19.3441H210.547Z" fill="#595653"/>
<path d="M223.198 19.3441V31H231.691V28.7021H226.196V26.0879H231.191V23.9232H226.196V21.642H231.691V19.3441H223.198Z" fill="#595653"/>
<path d="M233.606 19.3441V31H236.353L240.932 24.0065V31H243.929V19.3441H241.182L236.603 26.3376V19.3441H233.606Z" fill="#595653"/>
<path d="M236.853 18.3783C237.352 18.5893 237.99 18.6947 238.767 18.6947C239.556 18.6947 240.194 18.5893 240.682 18.3783C241.171 18.1563 241.526 17.8344 241.748 17.4126C241.981 16.9907 242.098 16.4634 242.098 15.8307H239.667C239.667 16.2969 239.594 16.6133 239.45 16.7798C239.317 16.9352 239.089 17.0129 238.767 17.0129C238.445 17.0129 238.212 16.9352 238.068 16.7798C237.935 16.6133 237.868 16.2969 237.868 15.8307H235.437C235.437 16.4634 235.548 16.9907 235.77 17.4126C236.003 17.8344 236.364 18.1563 236.853 18.3783Z" fill="#595653"/>
</svg>
